<svg width="25" height="25" viewBox="0 0 25 25" fill="none" xmlns="http://www.w3.org/2000/svg">
<path d="M12.5059 25C13.1354 25 13.6698 24.5007 13.6698 23.8969V13.6438H23.848C24.4656 13.6438 25 13.1212 25 12.5058C25 11.8788 24.4656 11.3679 23.848 11.3679H13.6698V1.10311C13.6698 0.499303 13.1354 0 12.5059 0C11.8646 0 11.342 0.499303 11.342 1.10311V11.3679H1.1639C0.546318 11.3679 0 11.8788 0 12.5058C0 13.1212 0.546318 13.6438 1.1639 13.6438H11.342V23.8969C11.342 24.5007 11.8646 25 12.5059 25Z" fill="white"/>
</svg>
