<svg width="59" height="75" viewBox="0 0 59 75" fill="none" xmlns="http://www.w3.org/2000/svg">
<path d="M3.77063 32.8138C3.49596 32.619 3.42071 32.3529 3.42824 32.0269C3.45834 30.8354 3.38685 29.6327 3.49972 28.4524C3.76686 25.7246 6.12219 23.6563 8.88763 23.6226C9.96747 23.6076 10.814 23.0006 11.1113 22.0226C11.1188 22.0002 11.1301 21.9814 11.1338 21.9589C11.2956 21.3594 11.2768 21.3294 10.7463 21.011C8.59792 19.7183 7.37511 17.8411 7.14559 15.3418C7.12678 15.1545 7.06658 15.0533 6.87846 14.9784C6.03189 14.6562 5.48257 14.0342 5.46752 13.1349C5.43742 11.55 5.37345 9.94626 5.56534 8.38004C5.97545 5.0715 7.63472 2.59852 10.8479 1.36578C11.5665 1.09226 12.3567 1.00608 13.1167 0.833717C13.2145 0.811236 13.3123 0.792501 13.4102 0.77002C13.9745 0.77002 14.5427 0.77002 15.1071 0.77002C15.6639 0.859946 16.232 0.897415 16.7701 1.05104C17.7032 1.31333 18.625 1.62057 19.5318 1.95405C20.0397 2.1414 20.0999 2.3887 19.893 2.86456C20.4874 3.12684 21.097 3.3554 21.6689 3.65891C22.7299 4.2172 23.5576 5.04152 24.2086 6.04196C24.4343 6.39042 24.4268 6.61524 24.1446 6.92249C23.4711 7.66063 23.1814 8.52992 23.1964 9.51911C23.2077 10.5795 23.1964 11.6361 23.1964 12.6965C23.1964 12.7977 23.2002 12.8988 23.1889 13C23.1475 13.296 22.9707 13.4646 22.6697 13.4796C22.3762 13.4909 22.158 13.2923 22.1429 12.9813C22.1241 12.5316 22.1354 12.082 22.1317 11.6286C22.1317 11.0441 22.1505 10.4558 22.1279 9.87132C22.0715 8.60111 22.3235 7.42832 23.1663 6.41665C22.3612 5.27758 21.3152 4.48323 19.9946 4.09355C19.3512 3.90246 18.6664 3.83501 18.0004 3.73759C17.6806 3.68888 17.3796 3.64392 17.3156 3.26548C17.2517 2.88329 17.5113 2.72592 17.8161 2.60976C17.865 2.59103 17.9139 2.5648 18.0644 2.48986C17.5 2.34373 17.0372 2.20135 16.5631 2.10393C14.8286 1.74422 13.0941 1.71799 11.4047 2.29502C8.91397 3.14558 7.44283 4.9441 6.83707 7.44331C6.63013 8.28637 6.56617 9.17439 6.51725 10.0474C6.46458 10.9692 6.50597 11.8947 6.50597 12.8164C6.50597 13.2586 6.63389 13.6332 7.08163 13.8993C7.09292 13.7756 7.10797 13.6857 7.10797 13.592C7.10797 12.985 7.08539 12.3743 7.10797 11.7673C7.19827 9.41045 9.48963 7.66813 11.7735 8.28262C12.6915 8.52992 13.587 8.90836 14.4486 9.32052C15.6188 9.88256 16.8002 10.3022 18.1171 10.2348C18.4971 10.216 18.7266 10.4409 18.7228 10.7668C18.7191 11.0816 18.4858 11.2802 18.1058 11.2989C16.834 11.3551 15.6489 11.0591 14.4975 10.527C13.5682 10.0961 12.6313 9.65775 11.6531 9.35799C10.0691 8.87089 8.53772 9.85634 8.21414 11.475C8.19909 11.5425 8.18404 11.6099 8.18781 11.6736C8.20662 12.9888 8.13889 14.3152 8.26682 15.6229C8.54148 18.463 11.1451 20.7861 14.0197 20.8611C17.6129 20.9548 20.3934 18.2607 20.3971 14.6824C20.3971 13.2286 20.3971 11.7748 20.3971 10.3247C20.3971 9.9013 20.5665 9.66899 20.8976 9.654C21.2287 9.63527 21.4619 9.88631 21.4619 10.3135C21.4695 11.9134 21.5221 13.5133 21.4506 15.1133C21.27 19.1974 17.7784 22.24 13.6886 21.9252C13.2296 21.8915 12.7781 21.7791 12.304 21.6966C12.2137 22.0339 12.1234 22.3748 12.0218 22.757C12.5373 23.1355 13.1317 23.364 13.7789 23.4165C14.2116 23.454 14.6556 23.4127 15.092 23.3715C15.4645 23.3378 15.7354 23.4802 15.7918 23.7949C15.8483 24.1134 15.6601 24.3645 15.2914 24.4319C14.0046 24.6755 12.7931 24.4619 11.6681 23.8024C11.4725 23.6863 11.3634 23.6675 11.179 23.8361C10.5657 24.4019 9.8245 24.6717 8.98922 24.6942C6.37052 24.7654 4.5156 26.6576 4.50808 29.258C4.50808 30.1835 4.49679 31.1052 4.51184 32.0307C4.5156 32.3567 4.45164 32.6265 4.17698 32.8213H3.77063V32.8138Z" fill="black"/>
<path d="M24.4085 32.8139C24.1338 32.6191 24.0661 32.3493 24.0736 32.0233C24.0887 31.0566 24.0849 30.0861 24.0736 29.1194C24.0511 26.6427 22.1209 24.728 19.6339 24.6868C18.4713 24.6681 17.5419 24.1885 16.8722 23.233C16.6389 22.8995 16.6653 22.5885 16.9286 22.3974C17.1958 22.2026 17.5081 22.27 17.7376 22.6035C18.2192 23.3004 18.8889 23.6114 19.7279 23.6227C22.6665 23.6601 25.0895 26.0582 25.146 28.9883C25.1648 30.0449 25.146 31.1053 25.1535 32.1619C25.1535 32.4542 25.0218 32.6453 24.8111 32.8139H24.4047H24.4085Z" fill="black"/>
<path d="M18.9148 31.1316C18.6439 31.1316 18.373 31.1428 18.1021 31.1316C17.7936 31.1166 17.5867 30.9067 17.5754 30.622C17.5679 30.3522 17.7748 30.0937 18.072 30.0824C18.6364 30.0637 19.2008 30.0637 19.7614 30.0824C20.0586 30.0937 20.2656 30.3522 20.2543 30.6257C20.243 30.9067 20.0361 31.1091 19.7238 31.1316C19.5883 31.1428 19.4529 31.1353 19.3174 31.1353C19.182 31.1353 19.0465 31.1353 18.9111 31.1353C18.9111 31.1353 18.9111 31.1353 18.9111 31.1316H18.9148Z" fill="black"/>
<path d="M34.1271 32.8138C33.8524 32.619 33.7772 32.3529 33.7847 32.0269C33.8148 30.8354 33.7433 29.6327 33.8562 28.4524C34.1233 25.7246 36.4786 23.6563 39.2441 23.6226C40.3239 23.6076 41.1705 23.0006 41.4677 22.0226C41.4752 22.0002 41.4865 21.9814 41.4903 21.9589C41.6521 21.3594 41.6333 21.3294 41.1028 21.011C38.9544 19.7183 37.7316 17.8411 37.502 15.3418C37.4832 15.1545 37.423 15.0533 37.2349 14.9784C36.3883 14.6562 35.839 14.0342 35.824 13.1349C35.7939 11.55 35.7299 9.94626 35.9218 8.38004C36.3319 5.0715 37.9912 2.59852 41.2043 1.36578C41.923 1.09226 42.7131 1.00608 43.4731 0.833717C43.571 0.811236 43.6688 0.792501 43.7666 0.77002C44.331 0.77002 44.8991 0.77002 45.4635 0.77002C46.0204 0.859946 46.5885 0.897415 47.1265 1.05104C48.0596 1.31333 48.9814 1.62057 49.8882 1.95405C50.3961 2.1414 50.4563 2.3887 50.2494 2.86456C50.8439 3.12684 51.4534 3.3554 52.0253 3.65891C53.0863 4.2172 53.9141 5.04152 54.565 6.04196C54.7908 6.39042 54.7832 6.61524 54.501 6.92249C53.8276 7.66063 53.5378 8.52992 53.5529 9.51911C53.5642 10.5795 53.5529 11.6361 53.5529 12.6965C53.5529 12.7977 53.5567 12.8988 53.5454 13C53.504 13.296 53.3271 13.4646 53.0261 13.4796C52.7327 13.4909 52.5144 13.2923 52.4994 12.9813C52.4806 12.5316 52.4919 12.082 52.4881 11.6286C52.4881 11.0441 52.5069 10.4558 52.4843 9.87132C52.4279 8.60111 52.68 7.42832 53.5228 6.41665C52.7176 5.27758 51.6716 4.48323 50.351 4.09355C49.7076 3.90246 49.0228 3.83501 48.3569 3.73759C48.0371 3.68888 47.7361 3.64392 47.6721 3.26548C47.6081 2.88329 47.8677 2.72592 48.1725 2.60976C48.2214 2.59103 48.2703 2.5648 48.4208 2.48986C47.8565 2.34373 47.3937 2.20135 46.9196 2.10393C45.1851 1.74422 43.4506 1.71799 41.7612 2.29502C39.2704 3.14558 37.7993 4.9441 37.1935 7.44331C36.9866 8.28637 36.9226 9.17439 36.8737 10.0474C36.821 10.9692 36.8624 11.8947 36.8624 12.8164C36.8624 13.2586 36.9903 13.6332 37.4381 13.8993C37.4494 13.7756 37.4644 13.6857 37.4644 13.592C37.4644 12.985 37.4418 12.3743 37.4644 11.7673C37.5547 9.41045 39.8461 7.66813 42.1299 8.28262C43.048 8.52992 43.9434 8.90836 44.8051 9.32052C45.9752 9.88256 47.1566 10.3022 48.4735 10.2348C48.8535 10.216 49.083 10.4409 49.0793 10.7668C49.0755 11.0816 48.8422 11.2802 48.4622 11.2989C47.1905 11.3551 46.0053 11.0591 44.854 10.527C43.9246 10.0961 42.9878 9.65775 42.0095 9.35799C40.4255 8.87089 38.8942 9.85634 38.5706 11.475C38.5555 11.5425 38.5405 11.6099 38.5443 11.6736C38.5631 12.9888 38.4953 14.3152 38.6233 15.6229C38.8979 18.463 41.5016 20.7861 44.3761 20.8611C47.9693 20.9548 50.7498 18.2607 50.7536 14.6824C50.7536 13.2286 50.7536 11.7748 50.7536 10.3247C50.7536 9.9013 50.9229 9.66899 51.254 9.654C51.5851 9.63527 51.8184 9.88631 51.8184 10.3135C51.8259 11.9134 51.8786 13.5133 51.8071 15.1133C51.6265 19.1974 48.1349 22.24 44.045 21.9252C43.586 21.8915 43.1345 21.7791 42.6604 21.6966C42.5701 22.0339 42.4798 22.3748 42.3782 22.757C42.8937 23.1355 43.4882 23.364 44.1353 23.4165C44.568 23.454 45.012 23.4127 45.4485 23.3715C45.8209 23.3378 46.0918 23.4802 46.1483 23.7949C46.2047 24.1134 46.0166 24.3645 45.6479 24.4319C44.3611 24.6755 43.1496 24.4619 42.0246 23.8024C41.8289 23.6863 41.7198 23.6675 41.5354 23.8361C40.9222 24.4019 40.1809 24.6717 39.3457 24.6942C36.727 24.7654 34.872 26.6576 34.8645 29.258C34.8645 30.1835 34.8532 31.1052 34.8683 32.0307C34.872 32.3567 34.8081 32.6265 34.5334 32.8213H34.1271V32.8138Z" fill="black"/>
<path d="M54.765 32.8139C54.4903 32.6191 54.4226 32.3493 54.4301 32.0233C54.4451 31.0566 54.4414 30.0861 54.4301 29.1194C54.4075 26.6427 52.4773 24.728 49.9903 24.6868C48.8277 24.6681 47.8984 24.1885 47.2287 23.233C46.9954 22.8995 47.0217 22.5885 47.2851 22.3974C47.5522 22.2026 47.8645 22.27 48.094 22.6035C48.5756 23.3004 49.2454 23.6114 50.0844 23.6227C53.0229 23.6601 55.446 26.0582 55.5024 28.9883C55.5212 30.0449 55.5024 31.1053 55.5099 32.1619C55.5099 32.4542 55.3782 32.6453 55.1675 32.8139H54.7612H54.765Z" fill="black"/>
<path d="M49.2713 31.1316C49.0004 31.1316 48.7295 31.1428 48.4586 31.1316C48.1501 31.1166 47.9431 30.9067 47.9318 30.622C47.9243 30.3522 48.1313 30.0937 48.4285 30.0824C48.9929 30.0637 49.5572 30.0637 50.1179 30.0824C50.4151 30.0937 50.622 30.3522 50.6107 30.6257C50.5995 30.9067 50.3925 31.1091 50.0802 31.1316C49.9448 31.1428 49.8093 31.1353 49.6739 31.1353C49.5384 31.1353 49.403 31.1353 49.2675 31.1353C49.2675 31.1353 49.2675 31.1353 49.2675 31.1316H49.2713Z" fill="black"/>
<path d="M4.8669 68.8413C4.78789 68.8937 4.70888 68.9349 4.64115 68.9874C3.77201 69.6469 2.99318 70.3887 2.47771 71.3704C2.12404 72.0486 1.95472 72.7755 1.89452 73.5362C1.87947 73.7385 1.88324 73.9408 1.8569 74.1432C1.84185 74.2556 1.80422 74.3792 1.74402 74.4729C1.63115 74.6453 1.42045 74.709 1.2549 74.6528C1.02538 74.5778 0.897461 74.4055 0.897461 74.1619C0.897461 73.5961 0.942609 73.0341 1.0743 72.4795C1.43173 70.9321 2.27077 69.6843 3.47854 68.6764C3.91875 68.3092 4.37778 67.9645 4.85185 67.646C5.38989 67.29 5.96179 66.9903 6.50736 66.6456C7.10936 66.2634 7.72641 65.9037 8.26068 65.4278C8.58426 65.1393 8.8815 64.8208 9.06586 64.4236C9.1825 64.1801 9.24646 63.9065 9.32924 63.648C9.36686 63.5319 9.31795 63.4532 9.22012 63.3857C8.47515 62.8537 7.8581 62.1942 7.35768 61.4336C6.91371 60.7554 6.57884 60.0247 6.36062 59.2454C6.31547 59.0842 6.24022 59.0018 6.07467 58.9456C5.54039 58.7658 5.11899 58.4285 4.84057 57.9414C4.31005 57.0197 4.21599 56.0492 4.6261 55.0563C4.7164 54.8352 4.87443 54.6366 5.03622 54.4568C5.13028 54.3519 5.2883 54.2732 5.42752 54.2507C5.77367 54.1945 6.07467 54.0484 6.35685 53.8648C7.59472 53.0592 8.6106 52.025 9.45716 50.8223C9.82589 50.2977 10.1457 49.7469 10.3903 49.1549C10.4015 49.1324 10.4128 49.1062 10.4241 49.0837C10.6085 48.7277 10.9396 48.6603 11.2444 48.9263C11.3723 49.035 11.4889 49.1549 11.6131 49.2635C12.7983 50.3164 14.0399 51.2944 15.4019 52.1149C15.575 52.2199 15.5599 52.2086 15.6954 52.0475C15.9889 51.7028 16.2899 51.3656 16.6022 51.0396C17.0762 50.5412 17.5616 50.0541 18.0394 49.5633C18.2689 49.3235 18.5323 49.1998 18.8672 49.3085C19.2246 49.4246 19.4316 49.7506 19.3714 50.1178C19.2322 50.9497 19.0816 51.7815 18.9387 52.617C18.9086 52.7894 18.8935 52.9692 18.8597 53.1416C18.8258 53.3102 18.7844 53.4751 18.728 53.6362C18.6941 53.7299 18.7167 53.7673 18.8032 53.7973C19.4617 54.0184 20.1389 54.1645 20.835 54.2095C20.9968 54.2207 21.1623 54.2132 21.3166 54.2507C21.4483 54.2807 21.5875 54.3369 21.6891 54.4231C22.0841 54.7603 22.2647 55.2137 22.3437 55.7158C22.4604 56.4464 22.3626 57.1433 22.0164 57.799C21.7305 58.3461 21.294 58.7358 20.7071 58.9381C20.5415 58.9981 20.4587 59.0805 20.4061 59.2604C19.9922 60.7291 19.1983 61.9619 18.0695 62.9886C17.904 63.1384 17.7121 63.2583 17.5277 63.3857C17.4487 63.4419 17.4224 63.4981 17.4337 63.5956C17.5277 64.27 17.8701 64.8133 18.3555 65.2704C18.6 65.5027 18.8597 65.7276 19.1419 65.9074C20.0148 66.4732 20.914 67.0015 21.7831 67.5748C22.3325 67.9383 22.8592 68.3429 23.3747 68.7551C24.0933 69.3246 24.6539 70.0328 25.0866 70.8384C25.5456 71.6964 25.8015 72.6144 25.8617 73.5886C25.873 73.761 25.8993 73.9333 25.8805 74.102C25.8655 74.2406 25.8278 74.3905 25.7488 74.5029C25.6585 74.6378 25.5042 74.7202 25.3274 74.6715C25.128 74.619 24.97 74.5029 24.9399 74.2893C24.906 74.0532 24.891 73.8134 24.8759 73.5774C24.7894 72.0411 24.1422 70.7747 23.0248 69.733C22.6711 69.407 22.2911 69.111 21.8998 68.7813C21.8019 68.9499 21.7267 69.0773 21.6552 69.2085C21.151 70.1752 20.4964 71.022 19.6272 71.6889C18.7317 72.3784 17.7234 72.7643 16.5758 72.6481C15.9663 72.5882 15.4132 72.3671 14.9203 71.9774C14.3296 71.5128 13.8668 70.9433 13.4529 70.3288C13.4341 70.2988 13.4116 70.2688 13.389 70.2389C13.3815 70.2276 13.3626 70.2239 13.3401 70.2089C13.3175 70.2351 13.2912 70.2576 13.2723 70.2876C12.9751 70.7822 12.6214 71.2281 12.2038 71.6215C11.0713 72.6931 9.76569 72.9292 8.32088 72.3821C7.28619 71.9924 6.47726 71.2918 5.84139 70.4037C5.49901 69.9279 5.21682 69.4108 4.90453 68.9162C4.89324 68.8937 4.87819 68.875 4.85562 68.8375L4.8669 68.8413ZM11.0562 50.0504C10.8079 50.4663 10.5897 50.8822 10.3263 51.2644C9.65281 52.2461 8.86645 53.1341 7.95592 53.9022C7.29372 54.4605 6.59013 54.9626 5.72852 55.1799C5.65703 55.1987 5.58178 55.2774 5.55168 55.3486C5.36732 55.7757 5.35227 56.2216 5.40494 56.6787C5.49524 57.4356 5.9204 57.9564 6.65409 58.1138C6.97391 58.1812 7.1357 58.3424 7.19966 58.6421C7.21095 58.7021 7.23728 58.762 7.25233 58.822C7.5571 60.0659 8.19672 61.1188 9.09596 62.0181C9.49855 62.419 9.98015 62.715 10.4693 62.9923C11.7034 63.6892 13.0466 63.8354 14.4199 63.6368C15.8308 63.4307 17.0273 62.7637 17.998 61.7183C18.7807 60.8753 19.2924 59.8786 19.5595 58.762C19.6498 58.3873 19.8153 58.1625 20.2179 58.0913C20.628 58.0164 20.9591 57.7803 21.1548 57.4019C21.4708 56.7874 21.4934 56.1429 21.3015 55.4834C21.2338 55.2586 21.0946 55.2062 20.8914 55.1949C19.9545 55.1387 19.0515 54.9177 18.1824 54.5692C18.0733 54.5242 17.983 54.5242 17.8739 54.5654C17.4525 54.7266 17.0198 54.7715 16.5909 54.6142C16.0114 54.4043 15.6502 53.9847 15.4734 53.4001C15.4508 53.329 15.4019 53.2428 15.3417 53.2053C14.0813 52.4747 12.9224 51.5979 11.7862 50.6949C11.5341 50.4963 11.3046 50.2677 11.0675 50.0541L11.0562 50.0504ZM18.6038 66.7018C17.618 66.0011 16.8129 65.1917 16.5269 63.989C14.4199 64.9257 12.3392 64.922 10.251 63.9815C9.96886 65.2105 9.13735 66.0236 8.13652 66.7355C8.89655 67.3987 9.73182 67.9045 10.6649 68.238C12.2527 68.8075 13.8668 68.8525 15.4885 68.4216C16.6586 68.1106 17.6858 67.5223 18.6 66.7055L18.6038 66.7018ZM14.1716 69.6618C14.4237 70.1302 15.1987 70.9883 15.5976 71.2655C16.0227 71.5615 16.4968 71.6927 17.0123 71.6889C17.7648 71.6814 18.427 71.4154 19.0177 70.962C19.8379 70.3325 20.4362 69.5195 20.9027 68.609C21.0758 68.2717 21.0758 68.2755 20.7597 68.0806C20.3496 67.8333 19.9433 67.5785 19.5369 67.3275C19.4541 67.275 19.3977 67.2788 19.3225 67.35C18.7317 67.8895 18.0808 68.3467 17.3697 68.7139C16.4592 69.1822 15.496 69.4782 14.4763 69.6056C14.3748 69.6169 14.2769 69.6431 14.1716 69.6656V69.6618ZM12.58 69.6543C12.4634 69.6356 12.3806 69.6206 12.2941 69.6056C11.8576 69.527 11.4137 69.482 10.9923 69.3621C9.68667 68.9911 8.51277 68.3691 7.50818 67.4511C7.32758 67.2863 7.3163 67.2863 7.1056 67.4137C6.72182 67.646 6.33804 67.8746 5.95427 68.1069C5.85644 68.1668 5.76614 68.2305 5.67584 68.2905C6.01447 69.0286 6.43587 69.6918 6.97015 70.2688C7.61353 70.9583 8.3397 71.5278 9.32547 71.659C10.0065 71.7489 10.6311 71.6402 11.1879 71.2243C11.7485 70.8084 12.1549 70.2614 12.5763 69.6581L12.58 69.6543ZM18.284 50.7548C18.2125 50.8035 18.1824 50.8223 18.1561 50.8447C17.6293 51.3843 17.1063 51.9276 16.5833 52.4709C16.5683 52.4859 16.557 52.5046 16.5457 52.5196C16.399 52.692 16.3651 52.8906 16.4027 53.1041C16.5156 53.7074 17.1477 53.9322 17.6218 53.535C17.6331 53.5238 17.6444 53.5088 17.6594 53.5088C17.8099 53.4901 17.825 53.3739 17.8475 53.2615C17.9416 52.7407 18.0319 52.2199 18.126 51.699C18.1786 51.3993 18.2276 51.0995 18.2878 50.7548H18.284Z" fill="black"/>
<path d="M14.4205 44.7521C13.7545 44.7408 13.0998 44.8083 12.4753 45.0668C12.2044 45.1792 11.9523 45.3254 11.7717 45.5689C11.6136 45.7825 11.3992 45.7713 11.1659 45.7113C10.8235 45.6214 10.4811 45.5015 10.135 45.4827C9.15297 45.4265 8.33274 45.8275 7.61787 46.4719C6.54931 47.4311 5.84949 48.6377 5.28511 49.9341C4.69064 51.3092 4.30686 52.7443 4.06983 54.2168C3.95319 54.9363 3.91556 55.6707 3.87417 56.4013C3.8215 57.2818 3.8215 58.1661 3.76506 59.0466C3.71991 59.7286 3.64466 60.4105 3.53931 61.0887C3.42267 61.8456 3.26089 62.595 3.11415 63.3481C3.08781 63.483 3.0389 63.6179 2.99751 63.7528C2.97117 63.8465 2.99751 63.8914 3.10286 63.9102C4.29557 64.1312 5.49958 64.2174 6.7111 64.2212C6.80893 64.2212 6.91052 64.2361 7.00458 64.2586C7.20775 64.3073 7.36954 64.5247 7.36578 64.7158C7.36202 64.9181 7.20023 65.1317 6.99705 65.1654C6.79388 65.1991 6.58318 65.2066 6.37624 65.1991C5.84573 65.1804 5.31521 65.1541 4.7847 65.1092C3.96447 65.038 3.15177 64.9218 2.35412 64.7045C1.95153 64.5959 1.81608 64.3785 1.94401 63.9814C2.24877 63.0146 2.43313 62.018 2.57611 61.0175C2.68522 60.2681 2.75671 59.5113 2.80562 58.7581C2.85454 57.975 2.85077 57.1919 2.88087 56.4088C2.92226 55.4421 3.03514 54.4866 3.20445 53.5349C3.47159 52.0324 3.93061 50.5861 4.56648 49.1997C5.15343 47.9182 5.87583 46.7192 6.95567 45.7713C7.84362 44.9919 8.85573 44.4936 10.0597 44.4936C10.372 44.4936 10.6881 44.576 10.9966 44.6397C11.1697 44.6771 11.3089 44.6659 11.4594 44.5535C11.9824 44.1601 12.5919 43.9577 13.2315 43.8678C14.8795 43.643 16.4899 43.8303 18.0287 44.4561C19.4848 45.0481 20.6437 46.0223 21.5429 47.3112C22.4835 48.6601 23.0441 50.1664 23.3903 51.7514C23.5709 52.5757 23.6875 53.415 23.7929 54.2543C23.8644 54.8164 23.8757 55.3821 23.8982 55.9479C23.9283 56.8809 23.9058 57.8214 23.9772 58.7506C24.0525 59.7623 24.1729 60.774 24.3347 61.7782C24.4551 62.5275 24.6733 63.2619 24.8501 64.0038C24.9404 64.3898 24.8238 64.6183 24.4363 64.7008C23.8305 64.8319 23.2247 64.9668 22.6115 65.0342C21.7611 65.1242 20.907 65.1541 20.0567 65.2029C19.9589 65.2103 19.8573 65.1916 19.7632 65.1654C19.5601 65.1092 19.4058 64.8956 19.4133 64.697C19.4209 64.5059 19.5789 64.3073 19.7783 64.2586C19.8648 64.2361 19.9514 64.2249 20.0417 64.2212C20.7377 64.1874 21.4376 64.1762 22.1336 64.12C22.6566 64.0788 23.1758 63.9776 23.6951 63.9064C23.8079 63.8914 23.7929 63.8277 23.7741 63.749C23.6461 63.187 23.4919 62.6325 23.3978 62.0667C23.2624 61.2573 23.1645 60.4442 23.0667 59.6312C22.9162 58.3722 22.92 57.102 22.8974 55.8355C22.8635 53.9396 22.6077 52.0699 21.9681 50.2713C21.5128 48.9899 20.8807 47.8133 19.9025 46.8429C18.8753 45.8237 17.6449 45.2167 16.234 44.9357C15.632 44.8158 15.03 44.7446 14.4205 44.7483V44.7521Z" fill="black"/>
<path d="M37.7536 68.8413C37.6746 68.8937 37.5956 68.9349 37.5279 68.9874C36.6587 69.6469 35.8799 70.3887 35.3644 71.3704C35.0108 72.0486 34.8414 72.7755 34.7812 73.5362C34.7662 73.7385 34.77 73.9408 34.7436 74.1432C34.7286 74.2556 34.6909 74.3792 34.6307 74.4729C34.5179 74.6453 34.3072 74.709 34.1416 74.6528C33.9121 74.5778 33.7842 74.4055 33.7842 74.1619C33.7842 73.5961 33.8293 73.0341 33.961 72.4795C34.3185 70.9321 35.1575 69.6843 36.3653 68.6764C36.8055 68.3092 37.2645 67.9645 37.7386 67.646C38.2766 67.29 38.8485 66.9903 39.3941 66.6456C39.9961 66.2634 40.6131 65.9037 41.1474 65.4278C41.471 65.1393 41.7682 64.8208 41.9526 64.4236C42.0692 64.1801 42.1332 63.9065 42.216 63.648C42.2536 63.5319 42.2047 63.4532 42.1068 63.3857C41.3619 62.8537 40.7448 62.1942 40.2444 61.4336C39.8004 60.7554 39.4656 60.0247 39.2473 59.2454C39.2022 59.0842 39.1269 59.0018 38.9614 58.9456C38.4271 58.7658 38.0057 58.4285 37.7273 57.9414C37.1968 57.0197 37.1027 56.0492 37.5128 55.0563C37.6031 54.8352 37.7611 54.6366 37.9229 54.4568C38.017 54.3519 38.175 54.2732 38.3142 54.2507C38.6604 54.1945 38.9614 54.0484 39.2436 53.8648C40.4814 53.0592 41.4973 52.025 42.3439 50.8223C42.7126 50.2977 43.0324 49.7469 43.277 49.1549C43.2883 49.1324 43.2996 49.1062 43.3108 49.0837C43.4952 48.7277 43.8263 48.6603 44.1311 48.9263C44.259 49.035 44.3756 49.1549 44.4998 49.2635C45.685 50.3164 46.9266 51.2944 48.2886 52.1149C48.4617 52.2199 48.4467 52.2086 48.5821 52.0475C48.8756 51.7028 49.1766 51.3656 49.4889 51.0396C49.963 50.5412 50.4483 50.0541 50.9262 49.5633C51.1557 49.3235 51.419 49.1998 51.7539 49.3085C52.1113 49.4246 52.3183 49.7506 52.2581 50.1178C52.1189 50.9497 51.9684 51.7815 51.8254 52.617C51.7953 52.7894 51.7802 52.9692 51.7464 53.1416C51.7125 53.3102 51.6711 53.4751 51.6147 53.6362C51.5808 53.7299 51.6034 53.7673 51.6899 53.7973C52.3484 54.0184 53.0256 54.1645 53.7217 54.2095C53.8835 54.2207 54.049 54.2132 54.2033 54.2507C54.335 54.2807 54.4742 54.3369 54.5758 54.4231C54.9709 54.7603 55.1514 55.2137 55.2305 55.7158C55.3471 56.4464 55.2493 57.1433 54.9031 57.799C54.6172 58.3461 54.1807 58.7358 53.5938 58.9381C53.4282 58.9981 53.3454 59.0805 53.2928 59.2604C52.8789 60.7291 52.085 61.9619 50.9563 62.9886C50.7907 63.1384 50.5988 63.2583 50.4145 63.3857C50.3354 63.4419 50.3091 63.4981 50.3204 63.5956C50.4145 64.27 50.7568 64.8133 51.2422 65.2704C51.4868 65.5027 51.7464 65.7276 52.0286 65.9074C52.9015 66.4732 53.8007 67.0015 54.6699 67.5748C55.2192 67.9383 55.7459 68.3429 56.2614 68.7551C56.98 69.3246 57.5406 70.0328 57.9733 70.8384C58.4324 71.6964 58.6882 72.6144 58.7484 73.5886C58.7597 73.761 58.786 73.9333 58.7672 74.102C58.7522 74.2406 58.7145 74.3905 58.6355 74.5029C58.5452 74.6378 58.391 74.7202 58.2141 74.6715C58.0147 74.619 57.8567 74.5029 57.8266 74.2893C57.7927 74.0532 57.7777 73.8134 57.7626 73.5774C57.6761 72.0411 57.0289 70.7747 55.9115 69.733C55.5578 69.407 55.1778 69.111 54.7865 68.7813C54.6887 68.9499 54.6134 69.0773 54.5419 69.2085C54.0377 70.1752 53.3831 71.022 52.5139 71.6889C51.6185 72.3784 50.6101 72.7643 49.4625 72.6481C48.853 72.5882 48.2999 72.3671 47.807 71.9774C47.2163 71.5128 46.7535 70.9433 46.3397 70.3288C46.3208 70.2988 46.2983 70.2688 46.2757 70.2389C46.2682 70.2276 46.2494 70.2239 46.2268 70.2089C46.2042 70.2351 46.1779 70.2576 46.1591 70.2876C45.8618 70.7822 45.5081 71.2281 45.0905 71.6215C43.958 72.6931 42.6524 72.9292 41.2076 72.3821C40.1729 71.9924 39.364 71.2918 38.7281 70.4037C38.3857 69.9279 38.1035 69.4108 37.7912 68.9162C37.78 68.8937 37.7649 68.875 37.7423 68.8375L37.7536 68.8413ZM43.9429 50.0504C43.6946 50.4663 43.4764 50.8822 43.213 51.2644C42.5395 52.2461 41.7532 53.1341 40.8426 53.9022C40.1804 54.4605 39.4769 54.9626 38.6152 55.1799C38.5437 55.1987 38.4685 55.2774 38.4384 55.3486C38.254 55.7757 38.239 56.2216 38.2917 56.6787C38.382 57.4356 38.8071 57.9564 39.5408 58.1138C39.8606 58.1812 40.0224 58.3424 40.0864 58.6421C40.0977 58.7021 40.124 58.762 40.1391 58.822C40.4438 60.0659 41.0834 61.1188 41.9827 62.0181C42.3853 62.419 42.8669 62.715 43.356 62.9923C44.5901 63.6892 45.9333 63.8354 47.3066 63.6368C48.7176 63.4307 49.914 62.7637 50.8848 61.7183C51.6674 60.8753 52.1791 59.8786 52.4462 58.762C52.5365 58.3873 52.7021 58.1625 53.1046 58.0913C53.5148 58.0164 53.8459 57.7803 54.0415 57.4019C54.3576 56.7874 54.3801 56.1429 54.1883 55.4834C54.1205 55.2586 53.9813 55.2062 53.7781 55.1949C52.8413 55.1387 51.9383 54.9177 51.0691 54.5692C50.96 54.5242 50.8697 54.5242 50.7606 54.5654C50.3392 54.7266 49.9065 54.7715 49.4776 54.6142C48.8982 54.4043 48.537 53.9847 48.3601 53.4001C48.3376 53.329 48.2886 53.2428 48.2284 53.2053C46.968 52.4747 45.8091 51.5979 44.6729 50.6949C44.4208 50.4963 44.1913 50.2677 43.9542 50.0541L43.9429 50.0504ZM51.4905 66.7018C50.5048 66.0011 49.6996 65.1917 49.4136 63.989C47.3066 64.9257 45.226 64.922 43.1378 63.9815C42.8556 65.2105 42.0241 66.0236 41.0232 66.7355C41.7833 67.3987 42.6185 67.9045 43.5516 68.238C45.1394 68.8075 46.7535 68.8525 48.3752 68.4216C49.5453 68.1106 50.5725 67.5223 51.4868 66.7055L51.4905 66.7018ZM47.0583 69.6618C47.3104 70.1302 48.0855 70.9883 48.4843 71.2655C48.9095 71.5615 49.3835 71.6927 49.899 71.6889C50.6515 71.6814 51.3137 71.4154 51.9044 70.962C52.7246 70.3325 53.3229 69.5195 53.7894 68.609C53.9625 68.2717 53.9625 68.2755 53.6464 68.0806C53.2363 67.8333 52.83 67.5785 52.4236 67.3275C52.3409 67.275 52.2844 67.2788 52.2092 67.35C51.6185 67.8895 50.9675 68.3467 50.2564 68.7139C49.3459 69.1822 48.3827 69.4782 47.3631 69.6056C47.2615 69.6169 47.1637 69.6431 47.0583 69.6656V69.6618ZM45.4668 69.6543C45.3501 69.6356 45.2673 69.6206 45.1808 69.6056C44.7444 69.527 44.3004 69.482 43.879 69.3621C42.5734 68.9911 41.3995 68.3691 40.3949 67.4511C40.2143 67.2863 40.203 67.2863 39.9923 67.4137C39.6085 67.646 39.2248 67.8746 38.841 68.1069C38.7432 68.1668 38.6529 68.2305 38.5626 68.2905C38.9012 69.0286 39.3226 69.6918 39.8569 70.2688C40.5003 70.9583 41.2264 71.5278 42.2122 71.659C42.8932 71.7489 43.5178 71.6402 44.0746 71.2243C44.6352 70.8084 45.0416 70.2614 45.463 69.6581L45.4668 69.6543ZM51.1707 50.7548C51.0992 50.8035 51.0691 50.8223 51.0428 50.8447C50.516 51.3843 49.9931 51.9276 49.4701 52.4709C49.455 52.4859 49.4437 52.5046 49.4324 52.5196C49.2857 52.692 49.2518 52.8906 49.2895 53.1041C49.4023 53.7074 50.0344 53.9322 50.5085 53.535C50.5198 53.5238 50.5311 53.5088 50.5461 53.5088C50.6966 53.4901 50.7117 53.3739 50.7343 53.2615C50.8283 52.7407 50.9186 52.2199 51.0127 51.699C51.0654 51.3993 51.1143 51.0995 51.1745 50.7548H51.1707Z" fill="black"/>
<path d="M47.3072 44.7521C46.6412 44.7408 45.9866 44.8083 45.362 45.0668C45.0911 45.1792 44.839 45.3254 44.6584 45.5689C44.5004 45.7825 44.2859 45.7713 44.0526 45.7113C43.7102 45.6214 43.3679 45.5015 43.0217 45.4827C42.0397 45.4265 41.2195 45.8275 40.5046 46.4719C39.436 47.4311 38.7362 48.6377 38.1718 49.9341C37.5774 51.3092 37.1936 52.7443 36.9565 54.2168C36.8399 54.9363 36.8023 55.6707 36.7609 56.4013C36.7082 57.2818 36.7082 58.1661 36.6518 59.0466C36.6066 59.7286 36.5314 60.4105 36.426 61.0887C36.3094 61.8456 36.1476 62.595 36.0009 63.3481C35.9745 63.483 35.9256 63.6179 35.8842 63.7528C35.8579 63.8465 35.8842 63.8914 35.9896 63.9102C37.1823 64.1312 38.3863 64.2174 39.5978 64.2212C39.6956 64.2212 39.7972 64.2361 39.8913 64.2586C40.0945 64.3073 40.2563 64.5247 40.2525 64.7158C40.2487 64.9181 40.0869 65.1317 39.8838 65.1654C39.6806 65.1991 39.4699 65.2066 39.263 65.1991C38.7324 65.1804 38.2019 65.1541 37.6714 65.1092C36.8512 65.038 36.0385 64.9218 35.2408 64.7045C34.8383 64.5959 34.7028 64.3785 34.8307 63.9814C35.1355 63.0146 35.3199 62.018 35.4628 61.0175C35.5719 60.2681 35.6434 59.5113 35.6923 58.7581C35.7413 57.975 35.7375 57.1919 35.7676 56.4088C35.809 55.4421 35.9219 54.4866 36.0912 53.5349C36.3583 52.0324 36.8173 50.5861 37.4532 49.1997C38.0401 47.9182 38.7625 46.7192 39.8424 45.7713C40.7303 44.9919 41.7425 44.4936 42.9465 44.4936C43.2587 44.4936 43.5748 44.576 43.8833 44.6397C44.0564 44.6771 44.1956 44.6659 44.3461 44.5535C44.8691 44.1601 45.4786 43.9577 46.1182 43.8678C47.7662 43.643 49.3766 43.8303 50.9154 44.4561C52.3715 45.0481 53.5304 46.0223 54.4296 47.3112C55.3703 48.6601 55.9309 50.1664 56.277 51.7514C56.4576 52.5757 56.5743 53.415 56.6796 54.2543C56.7511 54.8164 56.7624 55.3821 56.785 55.9479C56.8151 56.8809 56.7925 57.8214 56.864 58.7506C56.9392 59.7623 57.0596 60.774 57.2214 61.7782C57.3418 62.5275 57.56 63.2619 57.7369 64.0038C57.8272 64.3898 57.7105 64.6183 57.323 64.7008C56.7172 64.8319 56.1115 64.9668 55.4982 65.0342C54.6478 65.1242 53.7938 65.1541 52.9434 65.2029C52.8456 65.2103 52.744 65.1916 52.65 65.1654C52.4468 65.1092 52.2925 64.8956 52.3 64.697C52.3076 64.5059 52.4656 64.3073 52.665 64.2586C52.7515 64.2361 52.8381 64.2249 52.9284 64.2212C53.6244 64.1874 54.3243 64.1762 55.0203 64.12C55.5433 64.0788 56.0626 63.9776 56.5818 63.9064C56.6947 63.8914 56.6796 63.8277 56.6608 63.749C56.5329 63.187 56.3786 62.6325 56.2845 62.0667C56.1491 61.2573 56.0513 60.4442 55.9534 59.6312C55.8029 58.3722 55.8067 57.102 55.7841 55.8355C55.7503 53.9396 55.4944 52.0699 54.8548 50.2713C54.3995 48.9899 53.7674 47.8133 52.7892 46.8429C51.762 45.8237 50.5317 45.2167 49.1207 44.9357C48.5187 44.8158 47.9167 44.7446 47.3072 44.7483V44.7521Z" fill="black"/>
</svg>
