<svg width="55" height="55" viewBox="0 0 55 55" fill="none" xmlns="http://www.w3.org/2000/svg">
<rect width="55" height="55" rx="10" fill="#5A80FD"/>
<path d="M25.7087 28.3301C24.8244 25.2416 22.3552 22.0366 19.0477 21.92C15.8665 21.652 13.2939 24.4957 13.1791 27.5609C13.1561 33.9477 20.3799 38.4464 25.858 40.3928C25.9958 40.4277 25.9729 40.6492 25.835 40.6608C18.5998 41.3251 10.0323 35.3579 11.0889 27.3395C11.9043 20.7312 19.7138 18.0273 23.8367 23.4118C24.9737 24.8337 25.6743 26.5353 25.9614 28.2719C25.9843 28.435 25.7546 28.4816 25.7087 28.3301Z" fill="white"/>
<path d="M24.2385 40.6259C24.1696 40.5793 24.1122 40.521 24.0777 40.4511C23.8251 39.9616 24.8816 39.1691 25.1917 38.8544C26.6732 37.3276 27.0752 35.1715 27.3853 33.1436C27.8217 30.3231 28.2122 27.5027 28.5452 24.6822C28.6945 23.3886 28.8438 22.0832 29.3147 20.8595C29.7855 19.6357 30.6469 18.4819 31.8987 17.8875C32.0021 17.8409 32.1054 17.7943 32.2203 17.8059C32.5878 17.8409 32.5992 18.3304 32.4959 18.6567C30.555 25.1135 30.7158 31.9781 28.7519 38.4348C30.4287 38.7612 32.9093 38.9243 34.5631 38.5048C36.5959 37.9919 38.2841 36.6283 39.3981 34.985C40.7647 32.9688 41.339 30.5562 41.6491 28.2253C41.9362 26.0925 41.8673 23.913 41.3734 21.8035C41.0289 20.3234 40.4547 18.7733 39.2488 17.7244C38.2726 16.8736 36.9634 16.419 35.6426 16.2092C33.7362 15.9062 30.8881 16.5822 29.3032 17.6195C27.7183 18.6567 26.6732 19.6124 25.4329 22.2697C25.3984 22.3396 25.2721 22.328 25.2606 22.2581C25.1458 21.2791 25.4214 20.2884 25.8578 19.391C26.7766 17.4913 28.4189 15.8946 30.4402 14.9622C32.4614 14.0298 34.8387 13.7618 37.0438 14.2163C38.9961 14.6242 40.8222 15.5915 42.1429 16.9668C43.5899 18.4586 44.4283 20.3816 44.7843 22.3629C45.1404 24.3442 45.014 26.3489 44.7039 28.3302C44.256 31.1506 43.3832 33.9711 41.6491 36.3253C39.9149 38.6796 37.2045 40.5443 34.1267 40.9173C31.6805 41.2203 28.4533 40.5793 25.9956 40.7658C25.6167 40.7891 24.6634 40.9173 24.2385 40.6376V40.6259Z" fill="white"/>
<path d="M22.8497 18.4818C23.5093 18.4818 24.0441 17.9391 24.0441 17.2697C24.0441 16.6003 23.5093 16.0576 22.8497 16.0576C22.19 16.0576 21.6553 16.6003 21.6553 17.2697C21.6553 17.9391 22.19 18.4818 22.8497 18.4818Z" fill="white"/>
</svg>
