<svg width="123" height="75" viewBox="0 0 123 75" fill="none" xmlns="http://www.w3.org/2000/svg">
<path d="M3.76867 32.8138C3.49401 32.619 3.41876 32.3529 3.42628 32.0269C3.45638 30.8354 3.3849 29.6327 3.49777 28.4524C3.76491 25.7246 6.12024 23.6563 8.88568 23.6226C9.96552 23.6076 10.8121 23.0006 11.1093 22.0226C11.1168 22.0002 11.1281 21.9814 11.1319 21.9589C11.2937 21.3594 11.2749 21.3294 10.7444 21.011C8.59597 19.7183 7.37315 17.8411 7.14364 15.3418C7.12483 15.1545 7.06463 15.0533 6.8765 14.9784C6.02994 14.6562 5.48061 14.0342 5.46556 13.1349C5.43546 11.55 5.3715 9.94626 5.56339 8.38004C5.9735 5.0715 7.63276 2.59852 10.8459 1.36578C11.5646 1.09226 12.3547 1.00608 13.1147 0.833717C13.2126 0.811236 13.3104 0.792501 13.4082 0.77002C13.9726 0.77002 14.5407 0.77002 15.1051 0.77002C15.662 0.859946 16.2301 0.897415 16.7681 1.05104C17.7012 1.31333 18.623 1.62057 19.5298 1.95405C20.0377 2.1414 20.0979 2.3887 19.891 2.86456C20.4855 3.12684 21.095 3.3554 21.6669 3.65891C22.7279 4.2172 23.5557 5.04152 24.2066 6.04196C24.4324 6.39042 24.4248 6.61524 24.1426 6.92249C23.4692 7.66063 23.1794 8.52992 23.1945 9.51911C23.2058 10.5795 23.1945 11.6361 23.1945 12.6965C23.1945 12.7977 23.1983 12.8988 23.187 13C23.1456 13.296 22.9687 13.4646 22.6677 13.4796C22.3743 13.4909 22.156 13.2923 22.141 12.9813C22.1222 12.5316 22.1335 12.082 22.1297 11.6286C22.1297 11.0441 22.1485 10.4558 22.1259 9.87132C22.0695 8.60111 22.3216 7.42832 23.1644 6.41665C22.3592 5.27758 21.3132 4.48323 19.9926 4.09355C19.3492 3.90246 18.6644 3.83501 17.9985 3.73759C17.6787 3.68888 17.3777 3.64392 17.3137 3.26548C17.2497 2.88329 17.5093 2.72592 17.8141 2.60976C17.863 2.59103 17.9119 2.5648 18.0624 2.48986C17.4981 2.34373 17.0353 2.20135 16.5612 2.10393C14.8267 1.74422 13.0922 1.71799 11.4028 2.29502C8.91202 3.14558 7.44088 4.9441 6.83511 7.44331C6.62818 8.28637 6.56421 9.17439 6.5153 10.0474C6.46263 10.9692 6.50401 11.8947 6.50401 12.8164C6.50401 13.2586 6.63194 13.6332 7.07968 13.8993C7.09096 13.7756 7.10601 13.6857 7.10601 13.592C7.10601 12.985 7.08344 12.3743 7.10601 11.7673C7.19631 9.41045 9.48768 7.66813 11.7715 8.28262C12.6896 8.52992 13.585 8.90836 14.4467 9.32052C15.6168 9.88256 16.7982 10.3022 18.1151 10.2348C18.4951 10.216 18.7246 10.4409 18.7209 10.7668C18.7171 11.0816 18.4838 11.2802 18.1038 11.2989C16.8321 11.3551 15.6469 11.0591 14.4956 10.527C13.5662 10.0961 12.6294 9.65775 11.6511 9.35799C10.0671 8.87089 8.53577 9.85634 8.21219 11.475C8.19714 11.5425 8.18209 11.6099 8.18585 11.6736C8.20467 12.9888 8.13694 14.3152 8.26487 15.6229C8.53953 18.463 11.1432 20.7861 14.0177 20.8611C17.6109 20.9548 20.3914 18.2607 20.3952 14.6824C20.3952 13.2286 20.3952 11.7748 20.3952 10.3247C20.3952 9.9013 20.5645 9.66899 20.8956 9.654C21.2267 9.63527 21.46 9.88631 21.46 10.3135C21.4675 11.9134 21.5202 13.5133 21.4487 15.1133C21.2681 19.1974 17.7765 22.24 13.6866 21.9252C13.2276 21.8915 12.7761 21.7791 12.302 21.6966C12.2117 22.0339 12.1214 22.3748 12.0198 22.757C12.5353 23.1355 13.1298 23.364 13.7769 23.4165C14.2096 23.454 14.6536 23.4127 15.0901 23.3715C15.4625 23.3378 15.7334 23.4802 15.7899 23.7949C15.8463 24.1134 15.6582 24.3645 15.2895 24.4319C14.0027 24.6755 12.7912 24.4619 11.6662 23.8024C11.4705 23.6863 11.3614 23.6675 11.177 23.8361C10.5638 24.4019 9.82254 24.6717 8.98727 24.6942C6.36856 24.7654 4.51365 26.6576 4.50612 29.258C4.50612 30.1835 4.49484 31.1052 4.50989 32.0307C4.51365 32.3567 4.44969 32.6265 4.17502 32.8213H3.76867V32.8138Z" fill="black"/>
<path d="M24.4066 32.8139C24.1319 32.6191 24.0642 32.3493 24.0717 32.0233C24.0867 31.0566 24.083 30.0861 24.0717 29.1194C24.0491 26.6427 22.1189 24.728 19.6319 24.6868C18.4693 24.6681 17.54 24.1885 16.8703 23.233C16.637 22.8995 16.6633 22.5885 16.9267 22.3974C17.1938 22.2026 17.5061 22.27 17.7356 22.6035C18.2172 23.3004 18.887 23.6114 19.726 23.6227C22.6645 23.6601 25.0876 26.0582 25.144 28.9883C25.1628 30.0449 25.144 31.1053 25.1515 32.1619C25.1515 32.4542 25.0198 32.6453 24.8091 32.8139H24.4028H24.4066Z" fill="black"/>
<path d="M18.9129 31.1316C18.642 31.1316 18.3711 31.1428 18.1002 31.1316C17.7917 31.1166 17.5847 30.9067 17.5734 30.622C17.5659 30.3522 17.7729 30.0937 18.0701 30.0824C18.6345 30.0637 19.1988 30.0637 19.7595 30.0824C20.0567 30.0937 20.2636 30.3522 20.2523 30.6257C20.2411 30.9067 20.0341 31.1091 19.7218 31.1316C19.5864 31.1428 19.4509 31.1353 19.3155 31.1353C19.18 31.1353 19.0446 31.1353 18.9091 31.1353C18.9091 31.1353 18.9091 31.1353 18.9091 31.1316H18.9129Z" fill="black"/>
<path d="M34.1251 32.8138C33.8505 32.619 33.7752 32.3529 33.7827 32.0269C33.8128 30.8354 33.7413 29.6327 33.8542 28.4524C34.1214 25.7246 36.4767 23.6563 39.2421 23.6226C40.322 23.6076 41.1685 23.0006 41.4658 22.0226C41.4733 22.0002 41.4846 21.9814 41.4883 21.9589C41.6501 21.3594 41.6313 21.3294 41.1008 21.011C38.9524 19.7183 37.7296 17.8411 37.5001 15.3418C37.4813 15.1545 37.4211 15.0533 37.2329 14.9784C36.3864 14.6562 35.8371 14.0342 35.822 13.1349C35.7919 11.55 35.7279 9.94626 35.9198 8.38004C36.3299 5.0715 37.9892 2.59852 41.2024 1.36578C41.921 1.09226 42.7112 1.00608 43.4712 0.833717C43.569 0.811236 43.6668 0.792501 43.7647 0.77002C44.329 0.77002 44.8972 0.77002 45.4615 0.77002C46.0184 0.859946 46.5865 0.897415 47.1246 1.05104C48.0577 1.31333 48.9795 1.62057 49.8863 1.95405C50.3942 2.1414 50.4544 2.3887 50.2475 2.86456C50.8419 3.12684 51.4515 3.3554 52.0234 3.65891C53.0844 4.2172 53.9121 5.04152 54.563 6.04196C54.7888 6.39042 54.7813 6.61524 54.4991 6.92249C53.8256 7.66063 53.5359 8.52992 53.5509 9.51911C53.5622 10.5795 53.5509 11.6361 53.5509 12.6965C53.5509 12.7977 53.5547 12.8988 53.5434 13C53.502 13.296 53.3252 13.4646 53.0242 13.4796C52.7307 13.4909 52.5125 13.2923 52.4974 12.9813C52.4786 12.5316 52.4899 12.082 52.4861 11.6286C52.4861 11.0441 52.505 10.4558 52.4824 9.87132C52.4259 8.60111 52.678 7.42832 53.5208 6.41665C52.7157 5.27758 51.6697 4.48323 50.349 4.09355C49.7057 3.90246 49.0209 3.83501 48.3549 3.73759C48.0351 3.68888 47.7341 3.64392 47.6701 3.26548C47.6062 2.88329 47.8658 2.72592 48.1706 2.60976C48.2195 2.59103 48.2684 2.5648 48.4189 2.48986C47.8545 2.34373 47.3917 2.20135 46.9176 2.10393C45.1831 1.74422 43.4486 1.71799 41.7592 2.29502C39.2685 3.14558 37.7973 4.9441 37.1916 7.44331C36.9846 8.28637 36.9207 9.17439 36.8717 10.0474C36.8191 10.9692 36.8605 11.8947 36.8605 12.8164C36.8605 13.2586 36.9884 13.6332 37.4361 13.8993C37.4474 13.7756 37.4625 13.6857 37.4625 13.592C37.4625 12.985 37.4399 12.3743 37.4625 11.7673C37.5528 9.41045 39.8441 7.66813 42.128 8.28262C43.046 8.52992 43.9415 8.90836 44.8031 9.32052C45.9732 9.88256 47.1547 10.3022 48.4716 10.2348C48.8516 10.216 49.0811 10.4409 49.0773 10.7668C49.0736 11.0816 48.8403 11.2802 48.4603 11.2989C47.1885 11.3551 46.0033 11.0591 44.852 10.527C43.9227 10.0961 42.9858 9.65775 42.0076 9.35799C40.4236 8.87089 38.8922 9.85634 38.5686 11.475C38.5536 11.5425 38.5385 11.6099 38.5423 11.6736C38.5611 12.9888 38.4934 14.3152 38.6213 15.6229C38.896 18.463 41.4996 20.7861 44.3742 20.8611C47.9674 20.9548 50.7479 18.2607 50.7516 14.6824C50.7516 13.2286 50.7516 11.7748 50.7516 10.3247C50.7516 9.9013 50.9209 9.66899 51.252 9.654C51.5831 9.63527 51.8164 9.88631 51.8164 10.3135C51.8239 11.9134 51.8766 13.5133 51.8051 15.1133C51.6245 19.1974 48.1329 22.24 44.0431 21.9252C43.5841 21.8915 43.1326 21.7791 42.6585 21.6966C42.5682 22.0339 42.4779 22.3748 42.3763 22.757C42.8918 23.1355 43.4862 23.364 44.1334 23.4165C44.5661 23.454 45.01 23.4127 45.4465 23.3715C45.819 23.3378 46.0899 23.4802 46.1463 23.7949C46.2028 24.1134 46.0146 24.3645 45.6459 24.4319C44.3591 24.6755 43.1476 24.4619 42.0226 23.8024C41.827 23.6863 41.7179 23.6675 41.5335 23.8361C40.9202 24.4019 40.179 24.6717 39.3437 24.6942C36.725 24.7654 34.8701 26.6576 34.8626 29.258C34.8626 30.1835 34.8513 31.1052 34.8663 32.0307C34.8701 32.3567 34.8061 32.6265 34.5315 32.8213H34.1251V32.8138Z" fill="black"/>
<path d="M54.763 32.8139C54.4883 32.6191 54.4206 32.3493 54.4281 32.0233C54.4432 31.0566 54.4394 30.0861 54.4281 29.1194C54.4056 26.6427 52.4754 24.728 49.9884 24.6868C48.8258 24.6681 47.8964 24.1885 47.2267 23.233C46.9934 22.8995 47.0198 22.5885 47.2831 22.3974C47.5503 22.2026 47.8626 22.27 48.0921 22.6035C48.5737 23.3004 49.2434 23.6114 50.0824 23.6227C53.021 23.6601 55.444 26.0582 55.5005 28.9883C55.5193 30.0449 55.5005 31.1053 55.508 32.1619C55.508 32.4542 55.3763 32.6453 55.1656 32.8139H54.7592H54.763Z" fill="black"/>
<path d="M49.2693 31.1316C48.9984 31.1316 48.7275 31.1428 48.4566 31.1316C48.1481 31.1166 47.9412 30.9067 47.9299 30.622C47.9224 30.3522 48.1293 30.0937 48.4265 30.0824C48.9909 30.0637 49.5553 30.0637 50.1159 30.0824C50.4131 30.0937 50.6201 30.3522 50.6088 30.6257C50.5975 30.9067 50.3906 31.1091 50.0783 31.1316C49.9428 31.1428 49.8074 31.1353 49.6719 31.1353C49.5365 31.1353 49.401 31.1353 49.2656 31.1353C49.2656 31.1353 49.2656 31.1353 49.2656 31.1316H49.2693Z" fill="black"/>
<path d="M64.3468 32.8138C64.0721 32.619 63.9969 32.3529 64.0044 32.0269C64.0345 30.8354 63.963 29.6327 64.0759 28.4524C64.343 25.7246 66.6984 23.6563 69.4638 23.6226C70.5436 23.6076 71.3902 23.0006 71.6874 22.0226C71.695 22.0002 71.7063 21.9814 71.71 21.9589C71.8718 21.3594 71.853 21.3294 71.3225 21.011C69.1741 19.7183 67.9513 17.8411 67.7218 15.3418C67.703 15.1545 67.6428 15.0533 67.4546 14.9784C66.6081 14.6562 66.0587 14.0342 66.0437 13.1349C66.0136 11.55 65.9496 9.94626 66.1415 8.38004C66.5516 5.0715 68.2109 2.59852 71.4241 1.36578C72.1427 1.09226 72.9328 1.00608 73.6929 0.833717C73.7907 0.811236 73.8885 0.792501 73.9863 0.77002C74.5507 0.77002 75.1189 0.77002 75.6832 0.77002C76.2401 0.859946 76.8082 0.897415 77.3463 1.05104C78.2794 1.31333 79.2012 1.62057 80.1079 1.95405C80.6159 2.1414 80.6761 2.3887 80.4691 2.86456C81.0636 3.12684 81.6731 3.3554 82.245 3.65891C83.3061 4.2172 84.1338 5.04152 84.7847 6.04196C85.0105 6.39042 85.003 6.61524 84.7208 6.92249C84.0473 7.66063 83.7576 8.52992 83.7726 9.51911C83.7839 10.5795 83.7726 11.6361 83.7726 12.6965C83.7726 12.7977 83.7764 12.8988 83.7651 13C83.7237 13.296 83.5469 13.4646 83.2459 13.4796C82.9524 13.4909 82.7342 13.2923 82.7191 12.9813C82.7003 12.5316 82.7116 12.082 82.7078 11.6286C82.7078 11.0441 82.7266 10.4558 82.7041 9.87132C82.6476 8.60111 82.8997 7.42832 83.7425 6.41665C82.9373 5.27758 81.8914 4.48323 80.5707 4.09355C79.9273 3.90246 79.2426 3.83501 78.5766 3.73759C78.2568 3.68888 77.9558 3.64392 77.8918 3.26548C77.8279 2.88329 78.0875 2.72592 78.3922 2.60976C78.4411 2.59103 78.4901 2.5648 78.6406 2.48986C78.0762 2.34373 77.6134 2.20135 77.1393 2.10393C75.4048 1.74422 73.6703 1.71799 71.9809 2.29502C69.4901 3.14558 68.019 4.9441 67.4132 7.44331C67.2063 8.28637 67.1423 9.17439 67.0934 10.0474C67.0408 10.9692 67.0821 11.8947 67.0821 12.8164C67.0821 13.2586 67.2101 13.6332 67.6578 13.8993C67.6691 13.7756 67.6841 13.6857 67.6841 13.592C67.6841 12.985 67.6616 12.3743 67.6841 11.7673C67.7744 9.41045 70.0658 7.66813 72.3496 8.28262C73.2677 8.52992 74.1632 8.90836 75.0248 9.32052C76.1949 9.88256 77.3764 10.3022 78.6932 10.2348C79.0732 10.216 79.3028 10.4409 79.299 10.7668C79.2952 11.0816 79.062 11.2802 78.6819 11.2989C77.4102 11.3551 76.225 11.0591 75.0737 10.527C74.1444 10.0961 73.2075 9.65775 72.2292 9.35799C70.6452 8.87089 69.1139 9.85634 68.7903 11.475C68.7753 11.5425 68.7602 11.6099 68.764 11.6736C68.7828 12.9888 68.7151 14.3152 68.843 15.6229C69.1177 18.463 71.7213 20.7861 74.5959 20.8611C78.1891 20.9548 80.9695 18.2607 80.9733 14.6824C80.9733 13.2286 80.9733 11.7748 80.9733 10.3247C80.9733 9.9013 81.1426 9.66899 81.4737 9.654C81.8048 9.63527 82.0381 9.88631 82.0381 10.3135C82.0456 11.9134 82.0983 13.5133 82.0268 15.1133C81.8462 19.1974 78.3546 22.24 74.2648 21.9252C73.8057 21.8915 73.3542 21.7791 72.8802 21.6966C72.7899 22.0339 72.6996 22.3748 72.598 22.757C73.1134 23.1355 73.7079 23.364 74.3551 23.4165C74.7878 23.454 75.2317 23.4127 75.6682 23.3715C76.0407 23.3378 76.3116 23.4802 76.368 23.7949C76.4244 24.1134 76.2363 24.3645 75.8676 24.4319C74.5808 24.6755 73.3693 24.4619 72.2443 23.8024C72.0486 23.6863 71.9395 23.6675 71.7552 23.8361C71.1419 24.4019 70.4007 24.6717 69.5654 24.6942C66.9467 24.7654 65.0918 26.6576 65.0842 29.258C65.0842 30.1835 65.073 31.1052 65.088 32.0307C65.0918 32.3567 65.0278 32.6265 64.7531 32.8213H64.3468V32.8138Z" fill="black"/>
<path d="M84.9847 32.8139C84.71 32.6191 84.6423 32.3493 84.6498 32.0233C84.6649 31.0566 84.6611 30.0861 84.6498 29.1194C84.6272 26.6427 82.6971 24.728 80.2101 24.6868C79.0474 24.6681 78.1181 24.1885 77.4484 23.233C77.2151 22.8995 77.2414 22.5885 77.5048 22.3974C77.772 22.2026 78.0842 22.27 78.3138 22.6035C78.7954 23.3004 79.4651 23.6114 80.3041 23.6227C83.2426 23.6601 85.6657 26.0582 85.7221 28.9883C85.7409 30.0449 85.7221 31.1053 85.7297 32.1619C85.7297 32.4542 85.598 32.6453 85.3873 32.8139H84.9809H84.9847Z" fill="black"/>
<path d="M79.491 31.1316C79.2201 31.1316 78.9492 31.1428 78.6783 31.1316C78.3698 31.1166 78.1629 30.9067 78.1516 30.622C78.144 30.3522 78.351 30.0937 78.6482 30.0824C79.2126 30.0637 79.777 30.0637 80.3376 30.0824C80.6348 30.0937 80.8418 30.3522 80.8305 30.6257C80.8192 30.9067 80.6122 31.1091 80.3 31.1316C80.1645 31.1428 80.0291 31.1353 79.8936 31.1353C79.7582 31.1353 79.6227 31.1353 79.4873 31.1353C79.4873 31.1353 79.4873 31.1353 79.4873 31.1316H79.491Z" fill="black"/>
<path d="M94.6349 32.8138C94.3602 32.619 94.285 32.3529 94.2925 32.0269C94.3226 30.8354 94.2511 29.6327 94.364 28.4524C94.6311 25.7246 96.9864 23.6563 99.7519 23.6226C100.832 23.6076 101.678 23.0006 101.976 22.0226C101.983 22.0002 101.994 21.9814 101.998 21.9589C102.16 21.3594 102.141 21.3294 101.611 21.011C99.4622 19.7183 98.2394 17.8411 98.0099 15.3418C97.991 15.1545 97.9308 15.0533 97.7427 14.9784C96.8961 14.6562 96.3468 14.0342 96.3318 13.1349C96.3017 11.55 96.2377 9.94626 96.4296 8.38004C96.8397 5.0715 98.499 2.59852 101.712 1.36578C102.431 1.09226 103.221 1.00608 103.981 0.833717C104.079 0.811236 104.177 0.792501 104.274 0.77002C104.839 0.77002 105.407 0.77002 105.971 0.77002C106.528 0.859946 107.096 0.897415 107.634 1.05104C108.567 1.31333 109.489 1.62057 110.396 1.95405C110.904 2.1414 110.964 2.3887 110.757 2.86456C111.352 3.12684 111.961 3.3554 112.533 3.65891C113.594 4.2172 114.422 5.04152 115.073 6.04196C115.299 6.39042 115.291 6.61524 115.009 6.92249C114.335 7.66063 114.046 8.52992 114.061 9.51911C114.072 10.5795 114.061 11.6361 114.061 12.6965C114.061 12.7977 114.064 12.8988 114.053 13C114.012 13.296 113.835 13.4646 113.534 13.4796C113.24 13.4909 113.022 13.2923 113.007 12.9813C112.988 12.5316 113 12.082 112.996 11.6286C112.996 11.0441 113.015 10.4558 112.992 9.87132C112.936 8.60111 113.188 7.42832 114.031 6.41665C113.225 5.27758 112.179 4.48323 110.859 4.09355C110.215 3.90246 109.531 3.83501 108.865 3.73759C108.545 3.68888 108.244 3.64392 108.18 3.26548C108.116 2.88329 108.376 2.72592 108.68 2.60976C108.729 2.59103 108.778 2.5648 108.929 2.48986C108.364 2.34373 107.901 2.20135 107.427 2.10393C105.693 1.74422 103.958 1.71799 102.269 2.29502C99.7782 3.14558 98.3071 4.9441 97.7013 7.44331C97.4944 8.28637 97.4304 9.17439 97.3815 10.0474C97.3288 10.9692 97.3702 11.8947 97.3702 12.8164C97.3702 13.2586 97.4981 13.6332 97.9459 13.8993C97.9572 13.7756 97.9722 13.6857 97.9722 13.592C97.9722 12.985 97.9497 12.3743 97.9722 11.7673C98.0625 9.41045 100.354 7.66813 102.638 8.28262C103.556 8.52992 104.451 8.90836 105.313 9.32052C106.483 9.88256 107.664 10.3022 108.981 10.2348C109.361 10.216 109.591 10.4409 109.587 10.7668C109.583 11.0816 109.35 11.2802 108.97 11.2989C107.698 11.3551 106.513 11.0591 105.362 10.527C104.432 10.0961 103.496 9.65775 102.517 9.35799C100.933 8.87089 99.402 9.85634 99.0784 11.475C99.0634 11.5425 99.0483 11.6099 99.0521 11.6736C99.0709 12.9888 99.0032 14.3152 99.1311 15.6229C99.4057 18.463 102.009 20.7861 104.884 20.8611C108.477 20.9548 111.258 18.2607 111.261 14.6824C111.261 13.2286 111.261 11.7748 111.261 10.3247C111.261 9.9013 111.431 9.66899 111.762 9.654C112.093 9.63527 112.326 9.88631 112.326 10.3135C112.334 11.9134 112.386 13.5133 112.315 15.1133C112.134 19.1974 108.643 22.24 104.553 21.9252C104.094 21.8915 103.642 21.7791 103.168 21.6966C103.078 22.0339 102.988 22.3748 102.886 22.757C103.402 23.1355 103.996 23.364 104.643 23.4165C105.076 23.454 105.52 23.4127 105.956 23.3715C106.329 23.3378 106.6 23.4802 106.656 23.7949C106.713 24.1134 106.524 24.3645 106.156 24.4319C104.869 24.6755 103.657 24.4619 102.532 23.8024C102.337 23.6863 102.228 23.6675 102.043 23.8361C101.43 24.4019 100.689 24.6717 99.8535 24.6942C97.2348 24.7654 95.3799 26.6576 95.3723 29.258C95.3723 30.1835 95.361 31.1052 95.3761 32.0307C95.3799 32.3567 95.3159 32.6265 95.0412 32.8213H94.6349V32.8138Z" fill="black"/>
<path d="M115.273 32.8139C114.998 32.6191 114.93 32.3493 114.938 32.0233C114.953 31.0566 114.949 30.0861 114.938 29.1194C114.915 26.6427 112.985 24.728 110.498 24.6868C109.336 24.6681 108.406 24.1885 107.736 23.233C107.503 22.8995 107.53 22.5885 107.793 22.3974C108.06 22.2026 108.372 22.27 108.602 22.6035C109.083 23.3004 109.753 23.6114 110.592 23.6227C113.531 23.6601 115.954 26.0582 116.01 28.9883C116.029 30.0449 116.01 31.1053 116.018 32.1619C116.018 32.4542 115.886 32.6453 115.675 32.8139H115.269H115.273Z" fill="black"/>
<path d="M109.779 31.1316C109.508 31.1316 109.237 31.1428 108.966 31.1316C108.658 31.1166 108.451 30.9067 108.44 30.622C108.432 30.3522 108.639 30.0937 108.936 30.0824C109.501 30.0637 110.065 30.0637 110.626 30.0824C110.923 30.0937 111.13 30.3522 111.119 30.6257C111.107 30.9067 110.9 31.1091 110.588 31.1316C110.453 31.1428 110.317 31.1353 110.182 31.1353C110.046 31.1353 109.911 31.1353 109.775 31.1353C109.775 31.1353 109.775 31.1353 109.775 31.1316H109.779Z" fill="black"/>
<path d="M4.86593 68.8413C4.78691 68.8937 4.7079 68.9349 4.64018 68.9874C3.77104 69.6469 2.9922 70.3887 2.47674 71.3704C2.12306 72.0486 1.95375 72.7755 1.89355 73.5362C1.8785 73.7385 1.88226 73.9408 1.85592 74.1432C1.84087 74.2556 1.80325 74.3792 1.74305 74.4729C1.63017 74.6453 1.41947 74.709 1.25392 74.6528C1.02441 74.5778 0.896484 74.4055 0.896484 74.1619C0.896484 73.5961 0.941632 73.0341 1.07332 72.4795C1.43076 70.9321 2.2698 69.6843 3.47756 68.6764C3.91777 68.3092 4.3768 67.9645 4.85088 67.646C5.38891 67.29 5.96082 66.9903 6.50638 66.6456C7.10838 66.2634 7.72543 65.9037 8.25971 65.4278C8.58328 65.1393 8.88052 64.8208 9.06488 64.4236C9.18152 64.1801 9.24548 63.9065 9.32826 63.648C9.36588 63.5319 9.31697 63.4532 9.21915 63.3857C8.47417 62.8537 7.85712 62.1942 7.35671 61.4336C6.91273 60.7554 6.57787 60.0247 6.35964 59.2454C6.31449 59.0842 6.23924 59.0018 6.07369 58.9456C5.53941 58.7658 5.11801 58.4285 4.83959 57.9414C4.30908 57.0197 4.21501 56.0492 4.62513 55.0563C4.71543 54.8352 4.87345 54.6366 5.03524 54.4568C5.1293 54.3519 5.28733 54.2732 5.42654 54.2507C5.77269 54.1945 6.07369 54.0484 6.35588 53.8648C7.59374 53.0592 8.60962 52.025 9.45619 50.8223C9.82491 50.2977 10.1447 49.7469 10.3893 49.1549C10.4006 49.1324 10.4119 49.1062 10.4231 49.0837C10.6075 48.7277 10.9386 48.6603 11.2434 48.9263C11.3713 49.035 11.4879 49.1549 11.6121 49.2635C12.7973 50.3164 14.0389 51.2944 15.4009 52.1149C15.574 52.2199 15.559 52.2086 15.6944 52.0475C15.9879 51.7028 16.2889 51.3656 16.6012 51.0396C17.0753 50.5412 17.5606 50.0541 18.0385 49.5633C18.268 49.3235 18.5314 49.1998 18.8662 49.3085C19.2237 49.4246 19.4306 49.7506 19.3704 50.1178C19.2312 50.9497 19.0807 51.7815 18.9377 52.617C18.9076 52.7894 18.8925 52.9692 18.8587 53.1416C18.8248 53.3102 18.7834 53.4751 18.727 53.6362C18.6931 53.7299 18.7157 53.7673 18.8023 53.7973C19.4607 54.0184 20.1379 54.1645 20.834 54.2095C20.9958 54.2207 21.1613 54.2132 21.3156 54.2507C21.4473 54.2807 21.5865 54.3369 21.6881 54.4231C22.0832 54.7603 22.2638 55.2137 22.3428 55.7158C22.4594 56.4464 22.3616 57.1433 22.0154 57.799C21.7295 58.3461 21.293 58.7358 20.7061 58.9381C20.5405 58.9981 20.4578 59.0805 20.4051 59.2604C19.9912 60.7291 19.1973 61.9619 18.0686 62.9886C17.903 63.1384 17.7111 63.2583 17.5268 63.3857C17.4477 63.4419 17.4214 63.4981 17.4327 63.5956C17.5268 64.27 17.8691 64.8133 18.3545 65.2704C18.5991 65.5027 18.8587 65.7276 19.1409 65.9074C20.0138 66.4732 20.913 67.0015 21.7822 67.5748C22.3315 67.9383 22.8582 68.3429 23.3737 68.7551C24.0923 69.3246 24.6529 70.0328 25.0856 70.8384C25.5447 71.6964 25.8005 72.6144 25.8607 73.5886C25.872 73.761 25.8983 73.9333 25.8795 74.102C25.8645 74.2406 25.8268 74.3905 25.7478 74.5029C25.6575 74.6378 25.5033 74.7202 25.3264 74.6715C25.127 74.619 24.969 74.5029 24.9389 74.2893C24.905 74.0532 24.89 73.8134 24.8749 73.5774C24.7884 72.0411 24.1412 70.7747 23.0238 69.733C22.6701 69.407 22.2901 69.111 21.8988 68.7813C21.801 68.9499 21.7257 69.0773 21.6542 69.2085C21.1501 70.1752 20.4954 71.022 19.6262 71.6889C18.7308 72.3784 17.7224 72.7643 16.5748 72.6481C15.9653 72.5882 15.4122 72.3671 14.9193 71.9774C14.3286 71.5128 13.8658 70.9433 13.452 70.3288C13.4332 70.2988 13.4106 70.2688 13.388 70.2389C13.3805 70.2276 13.3617 70.2239 13.3391 70.2089C13.3165 70.2351 13.2902 70.2576 13.2714 70.2876C12.9741 70.7822 12.6205 71.2281 12.2028 71.6215C11.0703 72.6931 9.76471 72.9292 8.31991 72.3821C7.28522 71.9924 6.47628 71.2918 5.84042 70.4037C5.49803 69.9279 5.21584 69.4108 4.90355 68.9162C4.89226 68.8937 4.87721 68.875 4.85464 68.8375L4.86593 68.8413ZM11.0553 50.0504C10.8069 50.4663 10.5887 50.8822 10.3253 51.2644C9.65183 52.2461 8.86547 53.1341 7.95494 53.9022C7.29274 54.4605 6.58915 54.9626 5.72754 55.1799C5.65605 55.1987 5.5808 55.2774 5.5507 55.3486C5.36634 55.7757 5.35129 56.2216 5.40396 56.6787C5.49427 57.4356 5.91943 57.9564 6.65312 58.1138C6.97293 58.1812 7.13472 58.3424 7.19868 58.6421C7.20997 58.7021 7.23631 58.762 7.25136 58.822C7.55612 60.0659 8.19574 61.1188 9.09498 62.0181C9.49757 62.419 9.97917 62.715 10.4683 62.9923C11.7024 63.6892 13.0456 63.8354 14.4189 63.6368C15.8299 63.4307 17.0263 62.7637 17.9971 61.7183C18.7797 60.8753 19.2914 59.8786 19.5585 58.762C19.6488 58.3873 19.8144 58.1625 20.217 58.0913C20.6271 58.0164 20.9582 57.7803 21.1538 57.4019C21.4699 56.7874 21.4924 56.1429 21.3006 55.4834C21.2328 55.2586 21.0936 55.2062 20.8904 55.1949C19.9536 55.1387 19.0506 54.9177 18.1814 54.5692C18.0723 54.5242 17.982 54.5242 17.8729 54.5654C17.4515 54.7266 17.0188 54.7715 16.5899 54.6142C16.0105 54.4043 15.6493 53.9847 15.4724 53.4001C15.4499 53.329 15.4009 53.2428 15.3407 53.2053C14.0803 52.4747 12.9215 51.5979 11.7852 50.6949C11.5331 50.4963 11.3036 50.2677 11.0665 50.0541L11.0553 50.0504ZM18.6028 66.7018C17.6171 66.0011 16.8119 65.1917 16.5259 63.989C14.4189 64.9257 12.3383 64.922 10.2501 63.9815C9.96788 65.2105 9.13637 66.0236 8.13555 66.7355C8.89557 67.3987 9.73085 67.9045 10.6639 68.238C12.2517 68.8075 13.8658 68.8525 15.4875 68.4216C16.6576 68.1106 17.6848 67.5223 18.5991 66.7055L18.6028 66.7018ZM14.1706 69.6618C14.4227 70.1302 15.1978 70.9883 15.5966 71.2655C16.0218 71.5615 16.4958 71.6927 17.0113 71.6889C17.7638 71.6814 18.426 71.4154 19.0167 70.962C19.8369 70.3325 20.4352 69.5195 20.9017 68.609C21.0748 68.2717 21.0748 68.2755 20.7588 68.0806C20.3486 67.8333 19.9423 67.5785 19.5359 67.3275C19.4532 67.275 19.3967 67.2788 19.3215 67.35C18.7308 67.8895 18.0798 68.3467 17.3687 68.7139C16.4582 69.1822 15.495 69.4782 14.4754 69.6056C14.3738 69.6169 14.276 69.6431 14.1706 69.6656V69.6618ZM12.5791 69.6543C12.4624 69.6356 12.3797 69.6206 12.2931 69.6056C11.8567 69.527 11.4127 69.482 10.9913 69.3621C9.6857 68.9911 8.5118 68.3691 7.50721 67.4511C7.32661 67.2863 7.31532 67.2863 7.10462 67.4137C6.72084 67.646 6.33707 67.8746 5.95329 68.1069C5.85547 68.1668 5.76517 68.2305 5.67487 68.2905C6.01349 69.0286 6.43489 69.6918 6.96917 70.2688C7.61256 70.9583 8.33872 71.5278 9.3245 71.659C10.0055 71.7489 10.6301 71.6402 11.1869 71.2243C11.7476 70.8084 12.1539 70.2614 12.5753 69.6581L12.5791 69.6543ZM18.283 50.7548C18.2115 50.8035 18.1814 50.8223 18.1551 50.8447C17.6283 51.3843 17.1054 51.9276 16.5824 52.4709C16.5673 52.4859 16.556 52.5046 16.5447 52.5196C16.398 52.692 16.3641 52.8906 16.4018 53.1041C16.5146 53.7074 17.1467 53.9322 17.6208 53.535C17.6321 53.5238 17.6434 53.5088 17.6584 53.5088C17.8089 53.4901 17.824 53.3739 17.8466 53.2615C17.9406 52.7407 18.0309 52.2199 18.125 51.699C18.1777 51.3993 18.2266 51.0995 18.2868 50.7548H18.283Z" fill="black"/>
<path d="M14.4195 44.7521C13.7535 44.7408 13.0989 44.8083 12.4743 45.0668C12.2034 45.1792 11.9513 45.3254 11.7707 45.5689C11.6127 45.7825 11.3982 45.7713 11.1649 45.7113C10.8225 45.6214 10.4802 45.5015 10.134 45.4827C9.15199 45.4265 8.33177 45.8275 7.61689 46.4719C6.54834 47.4311 5.84851 48.6377 5.28414 49.9341C4.68966 51.3092 4.30589 52.7443 4.06885 54.2168C3.95221 54.9363 3.91458 55.6707 3.8732 56.4013C3.82052 57.2818 3.82052 58.1661 3.76408 59.0466C3.71893 59.7286 3.64368 60.4105 3.53833 61.0887C3.4217 61.8456 3.25991 62.595 3.11317 63.3481C3.08683 63.483 3.03792 63.6179 2.99653 63.7528C2.97019 63.8465 2.99653 63.8914 3.10188 63.9102C4.2946 64.1312 5.4986 64.2174 6.71013 64.2212C6.80795 64.2212 6.90954 64.2361 7.0036 64.2586C7.20678 64.3073 7.36856 64.5247 7.3648 64.7158C7.36104 64.9181 7.19925 65.1317 6.99608 65.1654C6.7929 65.1991 6.5822 65.2066 6.37526 65.1991C5.84475 65.1804 5.31424 65.1541 4.78372 65.1092C3.9635 65.038 3.1508 64.9218 2.35314 64.7045C1.95056 64.5959 1.81511 64.3785 1.94303 63.9814C2.2478 63.0146 2.43216 62.018 2.57513 61.0175C2.68425 60.2681 2.75573 59.5113 2.80465 58.7581C2.85356 57.975 2.8498 57.1919 2.8799 56.4088C2.92128 55.4421 3.03416 54.4866 3.20347 53.5349C3.47061 52.0324 3.92964 50.5861 4.5655 49.1997C5.15245 47.9182 5.87485 46.7192 6.95469 45.7713C7.84264 44.9919 8.85476 44.4936 10.0588 44.4936C10.371 44.4936 10.6871 44.576 10.9956 44.6397C11.1687 44.6771 11.3079 44.6659 11.4584 44.5535C11.9814 44.1601 12.5909 43.9577 13.2306 43.8678C14.8785 43.643 16.4889 43.8303 18.0277 44.4561C19.4838 45.0481 20.6427 46.0223 21.5419 47.3112C22.4826 48.6601 23.0432 50.1664 23.3893 51.7514C23.5699 52.5757 23.6866 53.415 23.7919 54.2543C23.8634 54.8164 23.8747 55.3821 23.8973 55.9479C23.9274 56.8809 23.9048 57.8214 23.9763 58.7506C24.0515 59.7623 24.1719 60.774 24.3337 61.7782C24.4541 62.5275 24.6723 63.2619 24.8492 64.0038C24.9395 64.3898 24.8228 64.6183 24.4353 64.7008C23.8295 64.8319 23.2238 64.9668 22.6105 65.0342C21.7602 65.1242 20.9061 65.1541 20.0557 65.2029C19.9579 65.2103 19.8563 65.1916 19.7623 65.1654C19.5591 65.1092 19.4048 64.8956 19.4123 64.697C19.4199 64.5059 19.5779 64.3073 19.7773 64.2586C19.8638 64.2361 19.9504 64.2249 20.0407 64.2212C20.7367 64.1874 21.4366 64.1762 22.1326 64.12C22.6556 64.0788 23.1749 63.9776 23.6941 63.9064C23.807 63.8914 23.7919 63.8277 23.7731 63.749C23.6452 63.187 23.4909 62.6325 23.3968 62.0667C23.2614 61.2573 23.1636 60.4442 23.0657 59.6312C22.9152 58.3722 22.919 57.102 22.8964 55.8355C22.8626 53.9396 22.6067 52.0699 21.9671 50.2713C21.5118 48.9899 20.8797 47.8133 19.9015 46.8429C18.8743 45.8237 17.644 45.2167 16.233 44.9357C15.631 44.8158 15.029 44.7446 14.4195 44.7483V44.7521Z" fill="black"/>
<path d="M36.7751 68.8413C36.6961 68.8937 36.6171 68.9349 36.5494 68.9874C35.6802 69.6469 34.9014 70.3887 34.3859 71.3704C34.0322 72.0486 33.8629 72.7755 33.8027 73.5362C33.7877 73.7385 33.7914 73.9408 33.7651 74.1432C33.7501 74.2556 33.7124 74.3792 33.6522 74.4729C33.5394 74.6453 33.3287 74.709 33.1631 74.6528C32.9336 74.5778 32.8057 74.4055 32.8057 74.1619C32.8057 73.5961 32.8508 73.0341 32.9825 72.4795C33.3399 70.9321 34.179 69.6843 35.3867 68.6764C35.827 68.3092 36.286 67.9645 36.7601 67.646C37.2981 67.29 37.87 66.9903 38.4156 66.6456C39.0176 66.2634 39.6346 65.9037 40.1689 65.4278C40.4925 65.1393 40.7897 64.8208 40.9741 64.4236C41.0907 64.1801 41.1547 63.9065 41.2374 63.648C41.2751 63.5319 41.2262 63.4532 41.1283 63.3857C40.3833 62.8537 39.7663 62.1942 39.2659 61.4336C38.8219 60.7554 38.487 60.0247 38.2688 59.2454C38.2237 59.0842 38.1484 59.0018 37.9829 58.9456C37.4486 58.7658 37.0272 58.4285 36.7488 57.9414C36.2183 57.0197 36.1242 56.0492 36.5343 55.0563C36.6246 54.8352 36.7826 54.6366 36.9444 54.4568C37.0385 54.3519 37.1965 54.2732 37.3357 54.2507C37.6819 54.1945 37.9829 54.0484 38.2651 53.8648C39.5029 53.0592 40.5188 52.025 41.3654 50.8223C41.7341 50.2977 42.0539 49.7469 42.2985 49.1549C42.3098 49.1324 42.321 49.1062 42.3323 49.0837C42.5167 48.7277 42.8478 48.6603 43.1526 48.9263C43.2805 49.035 43.3971 49.1549 43.5213 49.2635C44.7065 50.3164 45.9481 51.2944 47.3101 52.1149C47.4832 52.2199 47.4681 52.2086 47.6036 52.0475C47.8971 51.7028 48.1981 51.3656 48.5104 51.0396C48.9844 50.5412 49.4698 50.0541 49.9476 49.5633C50.1772 49.3235 50.4405 49.1998 50.7754 49.3085C51.1328 49.4246 51.3398 49.7506 51.2796 50.1178C51.1404 50.9497 50.9899 51.7815 50.8469 52.617C50.8168 52.7894 50.8017 52.9692 50.7679 53.1416C50.734 53.3102 50.6926 53.4751 50.6362 53.6362C50.6023 53.7299 50.6249 53.7673 50.7114 53.7973C51.3699 54.0184 52.0471 54.1645 52.7432 54.2095C52.905 54.2207 53.0705 54.2132 53.2248 54.2507C53.3565 54.2807 53.4957 54.3369 53.5973 54.4231C53.9923 54.7603 54.1729 55.2137 54.2519 55.7158C54.3686 56.4464 54.2708 57.1433 53.9246 57.799C53.6387 58.3461 53.2022 58.7358 52.6153 58.9381C52.4497 58.9981 52.3669 59.0805 52.3143 59.2604C51.9004 60.7291 51.1065 61.9619 49.9777 62.9886C49.8122 63.1384 49.6203 63.2583 49.4359 63.3857C49.3569 63.4419 49.3306 63.4981 49.3419 63.5956C49.4359 64.27 49.7783 64.8133 50.2637 65.2704C50.5083 65.5027 50.7679 65.7276 51.0501 65.9074C51.923 66.4732 52.8222 67.0015 53.6913 67.5748C54.2407 67.9383 54.7674 68.3429 55.2829 68.7551C56.0015 69.3246 56.5621 70.0328 56.9948 70.8384C57.4538 71.6964 57.7097 72.6144 57.7699 73.5886C57.7812 73.761 57.8075 73.9333 57.7887 74.102C57.7737 74.2406 57.736 74.3905 57.657 74.5029C57.5667 74.6378 57.4125 74.7202 57.2356 74.6715C57.0362 74.619 56.8782 74.5029 56.8481 74.2893C56.8142 74.0532 56.7992 73.8134 56.7841 73.5774C56.6976 72.0411 56.0504 70.7747 54.933 69.733C54.5793 69.407 54.1993 69.111 53.808 68.7813C53.7101 68.9499 53.6349 69.0773 53.5634 69.2085C53.0592 70.1752 52.4046 71.022 51.5354 71.6889C50.6399 72.3784 49.6316 72.7643 48.484 72.6481C47.8745 72.5882 47.3214 72.3671 46.8285 71.9774C46.2378 71.5128 45.775 70.9433 45.3611 70.3288C45.3423 70.2988 45.3198 70.2688 45.2972 70.2389C45.2897 70.2276 45.2708 70.2239 45.2483 70.2089C45.2257 70.2351 45.1994 70.2576 45.1805 70.2876C44.8833 70.7822 44.5296 71.2281 44.112 71.6215C42.9795 72.6931 41.6739 72.9292 40.2291 72.3821C39.1944 71.9924 38.3855 71.2918 37.7496 70.4037C37.4072 69.9279 37.125 69.4108 36.8127 68.9162C36.8014 68.8937 36.7864 68.875 36.7638 68.8375L36.7751 68.8413ZM42.9644 50.0504C42.7161 50.4663 42.4979 50.8822 42.2345 51.2644C41.561 52.2461 40.7746 53.1341 39.8641 53.9022C39.2019 54.4605 38.4983 54.9626 37.6367 55.1799C37.5652 55.1987 37.49 55.2774 37.4599 55.3486C37.2755 55.7757 37.2605 56.2216 37.3131 56.6787C37.4034 57.4356 37.8286 57.9564 38.5623 58.1138C38.8821 58.1812 39.0439 58.3424 39.1079 58.6421C39.1191 58.7021 39.1455 58.762 39.1605 58.822C39.4653 60.0659 40.1049 61.1188 41.0042 62.0181C41.4067 62.419 41.8884 62.715 42.3775 62.9923C43.6116 63.6892 44.9548 63.8354 46.3281 63.6368C47.739 63.4307 48.9355 62.7637 49.9063 61.7183C50.6889 60.8753 51.2006 59.8786 51.4677 58.762C51.558 58.3873 51.7235 58.1625 52.1261 58.0913C52.5362 58.0164 52.8673 57.7803 53.063 57.4019C53.379 56.7874 53.4016 56.1429 53.2097 55.4834C53.142 55.2586 53.0028 55.2062 52.7996 55.1949C51.8628 55.1387 50.9598 54.9177 50.0906 54.5692C49.9815 54.5242 49.8912 54.5242 49.7821 54.5654C49.3607 54.7266 48.928 54.7715 48.4991 54.6142C47.9197 54.4043 47.5584 53.9847 47.3816 53.4001C47.359 53.329 47.3101 53.2428 47.2499 53.2053C45.9895 52.4747 44.8306 51.5979 43.6944 50.6949C43.4423 50.4963 43.2128 50.2677 42.9757 50.0541L42.9644 50.0504ZM50.512 66.7018C49.5262 66.0011 48.7211 65.1917 48.4351 63.989C46.3281 64.9257 44.2474 64.922 42.1593 63.9815C41.8771 65.2105 41.0456 66.0236 40.0447 66.7355C40.8048 67.3987 41.64 67.9045 42.5731 68.238C44.1609 68.8075 45.775 68.8525 47.3967 68.4216C48.5668 68.1106 49.594 67.5223 50.5083 66.7055L50.512 66.7018ZM46.0798 69.6618C46.3319 70.1302 47.1069 70.9883 47.5058 71.2655C47.9309 71.5615 48.405 71.6927 48.9205 71.6889C49.673 71.6814 50.3352 71.4154 50.9259 70.962C51.7461 70.3325 52.3444 69.5195 52.8109 68.609C52.984 68.2717 52.984 68.2755 52.6679 68.0806C52.2578 67.8333 51.8515 67.5785 51.4451 67.3275C51.3623 67.275 51.3059 67.2788 51.2307 67.35C50.6399 67.8895 49.989 68.3467 49.2779 68.7139C48.3674 69.1822 47.4042 69.4782 46.3845 69.6056C46.283 69.6169 46.1851 69.6431 46.0798 69.6656V69.6618ZM44.4882 69.6543C44.3716 69.6356 44.2888 69.6206 44.2023 69.6056C43.7658 69.527 43.3219 69.482 42.9005 69.3621C41.5949 68.9911 40.421 68.3691 39.4164 67.4511C39.2358 67.2863 39.2245 67.2863 39.0138 67.4137C38.63 67.646 38.2462 67.8746 37.8625 68.1069C37.7646 68.1668 37.6743 68.2305 37.584 68.2905C37.9227 69.0286 38.3441 69.6918 38.8783 70.2688C39.5217 70.9583 40.2479 71.5278 41.2337 71.659C41.9147 71.7489 42.5393 71.6402 43.0961 71.2243C43.6567 70.8084 44.0631 70.2614 44.4845 69.6581L44.4882 69.6543ZM50.1922 50.7548C50.1207 50.8035 50.0906 50.8223 50.0643 50.8447C49.5375 51.3843 49.0145 51.9276 48.4915 52.4709C48.4765 52.4859 48.4652 52.5046 48.4539 52.5196C48.3072 52.692 48.2733 52.8906 48.311 53.1041C48.4238 53.7074 49.0559 53.9322 49.53 53.535C49.5413 53.5238 49.5526 53.5088 49.5676 53.5088C49.7181 53.4901 49.7332 53.3739 49.7558 53.2615C49.8498 52.7407 49.9401 52.2199 50.0342 51.699C50.0869 51.3993 50.1358 51.0995 50.196 50.7548H50.1922Z" fill="black"/>
<path d="M46.3287 44.7521C45.6627 44.7408 45.008 44.8083 44.3835 45.0668C44.1126 45.1792 43.8605 45.3254 43.6799 45.5689C43.5219 45.7825 43.3074 45.7713 43.0741 45.7113C42.7317 45.6214 42.3893 45.5015 42.0432 45.4827C41.0612 45.4265 40.2409 45.8275 39.5261 46.4719C38.4575 47.4311 37.7577 48.6377 37.1933 49.9341C36.5988 51.3092 36.2151 52.7443 35.978 54.2168C35.8614 54.9363 35.8238 55.6707 35.7824 56.4013C35.7297 57.2818 35.7297 58.1661 35.6733 59.0466C35.6281 59.7286 35.5529 60.4105 35.4475 61.0887C35.3309 61.8456 35.1691 62.595 35.0224 63.3481C34.996 63.483 34.9471 63.6179 34.9057 63.7528C34.8794 63.8465 34.9057 63.8914 35.0111 63.9102C36.2038 64.1312 37.4078 64.2174 38.6193 64.2212C38.7171 64.2212 38.8187 64.2361 38.9128 64.2586C39.116 64.3073 39.2777 64.5247 39.274 64.7158C39.2702 64.9181 39.1084 65.1317 38.9053 65.1654C38.7021 65.1991 38.4914 65.2066 38.2844 65.1991C37.7539 65.1804 37.2234 65.1541 36.6929 65.1092C35.8727 65.038 35.06 64.9218 34.2623 64.7045C33.8597 64.5959 33.7243 64.3785 33.8522 63.9814C34.157 63.0146 34.3413 62.018 34.4843 61.0175C34.5934 60.2681 34.6649 59.5113 34.7138 58.7581C34.7627 57.975 34.759 57.1919 34.7891 56.4088C34.8305 55.4421 34.9433 54.4866 35.1127 53.5349C35.3798 52.0324 35.8388 50.5861 36.4747 49.1997C37.0616 47.9182 37.784 46.7192 38.8639 45.7713C39.7518 44.9919 40.7639 44.4936 41.9679 44.4936C42.2802 44.4936 42.5963 44.576 42.9048 44.6397C43.0779 44.6771 43.2171 44.6659 43.3676 44.5535C43.8906 44.1601 44.5001 43.9577 45.1397 43.8678C46.7877 43.643 48.3981 43.8303 49.9369 44.4561C51.393 45.0481 52.5519 46.0223 53.4511 47.3112C54.3917 48.6601 54.9523 50.1664 55.2985 51.7514C55.4791 52.5757 55.5957 53.415 55.7011 54.2543C55.7726 54.8164 55.7839 55.3821 55.8064 55.9479C55.8365 56.8809 55.814 57.8214 55.8855 58.7506C55.9607 59.7623 56.0811 60.774 56.2429 61.7782C56.3633 62.5275 56.5815 63.2619 56.7583 64.0038C56.8486 64.3898 56.732 64.6183 56.3445 64.7008C55.7387 64.8319 55.1329 64.9668 54.5197 65.0342C53.6693 65.1242 52.8152 65.1541 51.9649 65.2029C51.8671 65.2103 51.7655 65.1916 51.6714 65.1654C51.4683 65.1092 51.314 64.8956 51.3215 64.697C51.3291 64.5059 51.4871 64.3073 51.6865 64.2586C51.773 64.2361 51.8596 64.2249 51.9499 64.2212C52.6459 64.1874 53.3458 64.1762 54.0418 64.12C54.5648 64.0788 55.084 63.9776 55.6033 63.9064C55.7161 63.8914 55.7011 63.8277 55.6823 63.749C55.5543 63.187 55.4001 62.6325 55.306 62.0667C55.1706 61.2573 55.0727 60.4442 54.9749 59.6312C54.8244 58.3722 54.8282 57.102 54.8056 55.8355C54.7717 53.9396 54.5159 52.0699 53.8763 50.2713C53.421 48.9899 52.7889 47.8133 51.8107 46.8429C50.7835 45.8237 49.5531 45.2167 48.1422 44.9357C47.5402 44.8158 46.9382 44.7446 46.3287 44.7483V44.7521Z" fill="black"/>
<path d="M68.9509 68.8413C68.8719 68.8937 68.7929 68.9349 68.7251 68.9874C67.856 69.6469 67.0772 70.3887 66.5617 71.3704C66.208 72.0486 66.0387 72.7755 65.9785 73.5362C65.9635 73.7385 65.9672 73.9408 65.9409 74.1432C65.9258 74.2556 65.8882 74.3792 65.828 74.4729C65.7151 74.6453 65.5044 74.709 65.3389 74.6528C65.1094 74.5778 64.9814 74.4055 64.9814 74.1619C64.9814 73.5961 65.0266 73.0341 65.1583 72.4795C65.5157 70.9321 66.3548 69.6843 67.5625 68.6764C68.0027 68.3092 68.4618 67.9645 68.9358 67.646C69.4739 67.29 70.0458 66.9903 70.5913 66.6456C71.1933 66.2634 71.8104 65.9037 72.3447 65.4278C72.6682 65.1393 72.9655 64.8208 73.1498 64.4236C73.2665 64.1801 73.3304 63.9065 73.4132 63.648C73.4508 63.5319 73.4019 63.4532 73.3041 63.3857C72.5591 62.8537 71.9421 62.1942 71.4417 61.4336C70.9977 60.7554 70.6628 60.0247 70.4446 59.2454C70.3995 59.0842 70.3242 59.0018 70.1587 58.9456C69.6244 58.7658 69.203 58.4285 68.9246 57.9414C68.394 57.0197 68.3 56.0492 68.7101 55.0563C68.8004 54.8352 68.9584 54.6366 69.1202 54.4568C69.2143 54.3519 69.3723 54.2732 69.5115 54.2507C69.8577 54.1945 70.1587 54.0484 70.4408 53.8648C71.6787 53.0592 72.6946 52.025 73.5411 50.8223C73.9099 50.2977 74.2297 49.7469 74.4742 49.1549C74.4855 49.1324 74.4968 49.1062 74.5081 49.0837C74.6925 48.7277 75.0236 48.6603 75.3283 48.9263C75.4563 49.035 75.5729 49.1549 75.6971 49.2635C76.8822 50.3164 78.1239 51.2944 79.4859 52.1149C79.659 52.2199 79.6439 52.2086 79.7794 52.0475C80.0729 51.7028 80.3739 51.3656 80.6861 51.0396C81.1602 50.5412 81.6456 50.0541 82.1234 49.5633C82.3529 49.3235 82.6163 49.1998 82.9512 49.3085C83.3086 49.4246 83.5155 49.7506 83.4553 50.1178C83.3161 50.9497 83.1656 51.7815 83.0227 52.617C82.9926 52.7894 82.9775 52.9692 82.9436 53.1416C82.9098 53.3102 82.8684 53.4751 82.812 53.6362C82.7781 53.7299 82.8007 53.7673 82.8872 53.7973C83.5457 54.0184 84.2229 54.1645 84.919 54.2095C85.0808 54.2207 85.2463 54.2132 85.4006 54.2507C85.5323 54.2807 85.6715 54.3369 85.7731 54.4231C86.1681 54.7603 86.3487 55.2137 86.4277 55.7158C86.5444 56.4464 86.4465 57.1433 86.1004 57.799C85.8144 58.3461 85.378 58.7358 84.791 58.9381C84.6255 58.9981 84.5427 59.0805 84.49 59.2604C84.0762 60.7291 83.2823 61.9619 82.1535 62.9886C81.988 63.1384 81.7961 63.2583 81.6117 63.3857C81.5327 63.4419 81.5064 63.4981 81.5177 63.5956C81.6117 64.27 81.9541 64.8133 82.4395 65.2704C82.684 65.5027 82.9436 65.7276 83.2258 65.9074C84.0987 66.4732 84.998 67.0015 85.8671 67.5748C86.4164 67.9383 86.9432 68.3429 87.4587 68.7551C88.1773 69.3246 88.7379 70.0328 89.1706 70.8384C89.6296 71.6964 89.8855 72.6144 89.9457 73.5886C89.957 73.761 89.9833 73.9333 89.9645 74.102C89.9494 74.2406 89.9118 74.3905 89.8328 74.5029C89.7425 74.6378 89.5882 74.7202 89.4114 74.6715C89.212 74.619 89.054 74.5029 89.0239 74.2893C88.99 74.0532 88.9749 73.8134 88.9599 73.5774C88.8734 72.0411 88.2262 70.7747 87.1087 69.733C86.7551 69.407 86.3751 69.111 85.9838 68.7813C85.8859 68.9499 85.8107 69.0773 85.7392 69.2085C85.235 70.1752 84.5803 71.022 83.7112 71.6889C82.8157 72.3784 81.8074 72.7643 80.6598 72.6481C80.0503 72.5882 79.4972 72.3671 79.0043 71.9774C78.4136 71.5128 77.9508 70.9433 77.5369 70.3288C77.5181 70.2988 77.4955 70.2688 77.473 70.2389C77.4654 70.2276 77.4466 70.2239 77.4241 70.2089C77.4015 70.2351 77.3751 70.2576 77.3563 70.2876C77.0591 70.7822 76.7054 71.2281 76.2878 71.6215C75.1553 72.6931 73.8497 72.9292 72.4049 72.3821C71.3702 71.9924 70.5612 71.2918 69.9254 70.4037C69.583 69.9279 69.3008 69.4108 68.9885 68.9162C68.9772 68.8937 68.9622 68.875 68.9396 68.8375L68.9509 68.8413ZM75.1402 50.0504C74.8919 50.4663 74.6737 50.8822 74.4103 51.2644C73.7368 52.2461 72.9504 53.1341 72.0399 53.9022C71.3777 54.4605 70.6741 54.9626 69.8125 55.1799C69.741 55.1987 69.6658 55.2774 69.6357 55.3486C69.4513 55.7757 69.4363 56.2216 69.4889 56.6787C69.5792 57.4356 70.0044 57.9564 70.7381 58.1138C71.0579 58.1812 71.2197 58.3424 71.2836 58.6421C71.2949 58.7021 71.3213 58.762 71.3363 58.822C71.6411 60.0659 72.2807 61.1188 73.1799 62.0181C73.5825 62.419 74.0641 62.715 74.5533 62.9923C75.7874 63.6892 77.1306 63.8354 78.5039 63.6368C79.9148 63.4307 81.1113 62.7637 82.082 61.7183C82.8646 60.8753 83.3763 59.8786 83.6435 58.762C83.7338 58.3873 83.8993 58.1625 84.3019 58.0913C84.712 58.0164 85.0431 57.7803 85.2388 57.4019C85.5548 56.7874 85.5774 56.1429 85.3855 55.4834C85.3178 55.2586 85.1786 55.2062 84.9754 55.1949C84.0385 55.1387 83.1355 54.9177 82.2664 54.5692C82.1573 54.5242 82.067 54.5242 81.9579 54.5654C81.5365 54.7266 81.1038 54.7715 80.6749 54.6142C80.0954 54.4043 79.7342 53.9847 79.5574 53.4001C79.5348 53.329 79.4859 53.2428 79.4257 53.2053C78.1653 52.4747 77.0064 51.5979 75.8701 50.6949C75.618 50.4963 75.3885 50.2677 75.1515 50.0541L75.1402 50.0504ZM82.6878 66.7018C81.702 66.0011 80.8968 65.1917 80.6109 63.989C78.5039 64.9257 76.4232 64.922 74.335 63.9815C74.0528 65.2105 73.2213 66.0236 72.2205 66.7355C72.9805 67.3987 73.8158 67.9045 74.7489 68.238C76.3367 68.8075 77.9508 68.8525 79.5724 68.4216C80.7426 68.1106 81.7697 67.5223 82.684 66.7055L82.6878 66.7018ZM78.2556 69.6618C78.5077 70.1302 79.2827 70.9883 79.6816 71.2655C80.1067 71.5615 80.5808 71.6927 81.0963 71.6889C81.8488 71.6814 82.511 71.4154 83.1017 70.962C83.9219 70.3325 84.5201 69.5195 84.9867 68.609C85.1598 68.2717 85.1598 68.2755 84.8437 68.0806C84.4336 67.8333 84.0273 67.5785 83.6209 67.3275C83.5381 67.275 83.4817 67.2788 83.4064 67.35C82.8157 67.8895 82.1648 68.3467 81.4537 68.7139C80.5432 69.1822 79.58 69.4782 78.5603 69.6056C78.4587 69.6169 78.3609 69.6431 78.2556 69.6656V69.6618ZM76.664 69.6543C76.5474 69.6356 76.4646 69.6206 76.3781 69.6056C75.9416 69.527 75.4976 69.482 75.0762 69.3621C73.7707 68.9911 72.5968 68.3691 71.5922 67.4511C71.4116 67.2863 71.4003 67.2863 71.1896 67.4137C70.8058 67.646 70.422 67.8746 70.0383 68.1069C69.9404 68.1668 69.8501 68.2305 69.7598 68.2905C70.0985 69.0286 70.5199 69.6918 71.0541 70.2688C71.6975 70.9583 72.4237 71.5278 73.4095 71.659C74.0905 71.7489 74.715 71.6402 75.2719 71.2243C75.8325 70.8084 76.2389 70.2614 76.6603 69.6581L76.664 69.6543ZM82.368 50.7548C82.2965 50.8035 82.2664 50.8223 82.2401 50.8447C81.7133 51.3843 81.1903 51.9276 80.6673 52.4709C80.6523 52.4859 80.641 52.5046 80.6297 52.5196C80.483 52.692 80.4491 52.8906 80.4867 53.1041C80.5996 53.7074 81.2317 53.9322 81.7058 53.535C81.7171 53.5238 81.7284 53.5088 81.7434 53.5088C81.8939 53.4901 81.909 53.3739 81.9315 53.2615C82.0256 52.7407 82.1159 52.2199 82.21 51.699C82.2626 51.3993 82.3115 51.0995 82.3717 50.7548H82.368Z" fill="black"/>
<path d="M78.5045 44.7521C77.8385 44.7408 77.1838 44.8083 76.5592 45.0668C76.2883 45.1792 76.0363 45.3254 75.8557 45.5689C75.6976 45.7825 75.4832 45.7713 75.2499 45.7113C74.9075 45.6214 74.5651 45.5015 74.219 45.4827C73.237 45.4265 72.4167 45.8275 71.7019 46.4719C70.6333 47.4311 69.9335 48.6377 69.3691 49.9341C68.7746 51.3092 68.3908 52.7443 68.1538 54.2168C68.0372 54.9363 67.9995 55.6707 67.9582 56.4013C67.9055 57.2818 67.9055 58.1661 67.849 59.0466C67.8039 59.7286 67.7286 60.4105 67.6233 61.0887C67.5067 61.8456 67.3449 62.595 67.1981 63.3481C67.1718 63.483 67.1229 63.6179 67.0815 63.7528C67.0552 63.8465 67.0815 63.8914 67.1868 63.9102C68.3796 64.1312 69.5836 64.2174 70.7951 64.2212C70.8929 64.2212 70.9945 64.2361 71.0886 64.2586C71.2917 64.3073 71.4535 64.5247 71.4498 64.7158C71.446 64.9181 71.2842 65.1317 71.081 65.1654C70.8779 65.1991 70.6672 65.2066 70.4602 65.1991C69.9297 65.1804 69.3992 65.1541 68.8687 65.1092C68.0485 65.038 67.2358 64.9218 66.4381 64.7045C66.0355 64.5959 65.9001 64.3785 66.028 63.9814C66.3328 63.0146 66.5171 62.018 66.6601 61.0175C66.7692 60.2681 66.8407 59.5113 66.8896 58.7581C66.9385 57.975 66.9348 57.1919 66.9649 56.4088C67.0062 55.4421 67.1191 54.4866 67.2884 53.5349C67.5556 52.0324 68.0146 50.5861 68.6505 49.1997C69.2374 47.9182 69.9598 46.7192 71.0397 45.7713C71.9276 44.9919 72.9397 44.4936 74.1437 44.4936C74.456 44.4936 74.7721 44.576 75.0806 44.6397C75.2537 44.6771 75.3929 44.6659 75.5434 44.5535C76.0664 44.1601 76.6759 43.9577 77.3155 43.8678C78.9635 43.643 80.5738 43.8303 82.1127 44.4561C83.5688 45.0481 84.7276 46.0223 85.6269 47.3112C86.5675 48.6601 87.1281 50.1664 87.4743 51.7514C87.6549 52.5757 87.7715 53.415 87.8769 54.2543C87.9484 54.8164 87.9596 55.3821 87.9822 55.9479C88.0123 56.8809 87.9897 57.8214 88.0612 58.7506C88.1365 59.7623 88.2569 60.774 88.4187 61.7782C88.5391 62.5275 88.7573 63.2619 88.9341 64.0038C89.0244 64.3898 88.9078 64.6183 88.5203 64.7008C87.9145 64.8319 87.3087 64.9668 86.6954 65.0342C85.8451 65.1242 84.991 65.1541 84.1407 65.2029C84.0429 65.2103 83.9413 65.1916 83.8472 65.1654C83.644 65.1092 83.4898 64.8956 83.4973 64.697C83.5048 64.5059 83.6629 64.3073 83.8623 64.2586C83.9488 64.2361 84.0353 64.2249 84.1256 64.2212C84.8217 64.1874 85.5215 64.1762 86.2176 64.12C86.7406 64.0788 87.2598 63.9776 87.779 63.9064C87.8919 63.8914 87.8769 63.8277 87.8581 63.749C87.7301 63.187 87.5759 62.6325 87.4818 62.0667C87.3464 61.2573 87.2485 60.4442 87.1507 59.6312C87.0002 58.3722 87.004 57.102 86.9814 55.8355C86.9475 53.9396 86.6917 52.0699 86.052 50.2713C85.5968 48.9899 84.9647 47.8133 83.9864 46.8429C82.9593 45.8237 81.7289 45.2167 80.318 44.9357C79.716 44.8158 79.114 44.7446 78.5045 44.7483V44.7521Z" fill="black"/>
<path d="M101.192 68.8413C101.113 68.8937 101.034 68.9349 100.966 68.9874C100.097 69.6469 99.3184 70.3887 98.8029 71.3704C98.4492 72.0486 98.2799 72.7755 98.2197 73.5362C98.2047 73.7385 98.2084 73.9408 98.1821 74.1432C98.167 74.2556 98.1294 74.3792 98.0692 74.4729C97.9563 74.6453 97.7456 74.709 97.5801 74.6528C97.3506 74.5778 97.2227 74.4055 97.2227 74.1619C97.2227 73.5961 97.2678 73.0341 97.3995 72.4795C97.7569 70.9321 98.596 69.6843 99.8037 68.6764C100.244 68.3092 100.703 67.9645 101.177 67.646C101.715 67.29 102.287 66.9903 102.833 66.6456C103.435 66.2634 104.052 65.9037 104.586 65.4278C104.909 65.1393 105.207 64.8208 105.391 64.4236C105.508 64.1801 105.572 63.9065 105.654 63.648C105.692 63.5319 105.643 63.4532 105.545 63.3857C104.8 62.8537 104.183 62.1942 103.683 61.4336C103.239 60.7554 102.904 60.0247 102.686 59.2454C102.641 59.0842 102.565 59.0018 102.4 58.9456C101.866 58.7658 101.444 58.4285 101.166 57.9414C100.635 57.0197 100.541 56.0492 100.951 55.0563C101.042 54.8352 101.2 54.6366 101.361 54.4568C101.455 54.3519 101.613 54.2732 101.753 54.2507C102.099 54.1945 102.4 54.0484 102.682 53.8648C103.92 53.0592 104.936 52.025 105.782 50.8223C106.151 50.2977 106.471 49.7469 106.715 49.1549C106.727 49.1324 106.738 49.1062 106.749 49.0837C106.934 48.7277 107.265 48.6603 107.57 48.9263C107.697 49.035 107.814 49.1549 107.938 49.2635C109.123 50.3164 110.365 51.2944 111.727 52.1149C111.9 52.2199 111.885 52.2086 112.021 52.0475C112.314 51.7028 112.615 51.3656 112.927 51.0396C113.401 50.5412 113.887 50.0541 114.365 49.5633C114.594 49.3235 114.858 49.1998 115.192 49.3085C115.55 49.4246 115.757 49.7506 115.697 50.1178C115.557 50.9497 115.407 51.7815 115.264 52.617C115.234 52.7894 115.219 52.9692 115.185 53.1416C115.151 53.3102 115.11 53.4751 115.053 53.6362C115.019 53.7299 115.042 53.7673 115.128 53.7973C115.787 54.0184 116.464 54.1645 117.16 54.2095C117.322 54.2207 117.488 54.2132 117.642 54.2507C117.773 54.2807 117.913 54.3369 118.014 54.4231C118.409 54.7603 118.59 55.2137 118.669 55.7158C118.786 56.4464 118.688 57.1433 118.342 57.799C118.056 58.3461 117.619 58.7358 117.032 58.9381C116.867 58.9981 116.784 59.0805 116.731 59.2604C116.317 60.7291 115.523 61.9619 114.395 62.9886C114.229 63.1384 114.037 63.2583 113.853 63.3857C113.774 63.4419 113.748 63.4981 113.759 63.5956C113.853 64.27 114.195 64.8133 114.681 65.2704C114.925 65.5027 115.185 65.7276 115.467 65.9074C116.34 66.4732 117.239 67.0015 118.108 67.5748C118.658 67.9383 119.184 68.3429 119.7 68.7551C120.419 69.3246 120.979 70.0328 121.412 70.8384C121.871 71.6964 122.127 72.6144 122.187 73.5886C122.198 73.761 122.225 73.9333 122.206 74.102C122.191 74.2406 122.153 74.3905 122.074 74.5029C121.984 74.6378 121.829 74.7202 121.653 74.6715C121.453 74.619 121.295 74.5029 121.265 74.2893C121.231 74.0532 121.216 73.8134 121.201 73.5774C121.115 72.0411 120.467 70.7747 119.35 69.733C118.996 69.407 118.616 69.111 118.225 68.7813C118.127 68.9499 118.052 69.0773 117.98 69.2085C117.476 70.1752 116.822 71.022 115.952 71.6889C115.057 72.3784 114.049 72.7643 112.901 72.6481C112.291 72.5882 111.738 72.3671 111.246 71.9774C110.655 71.5128 110.192 70.9433 109.778 70.3288C109.759 70.2988 109.737 70.2688 109.714 70.2389C109.707 70.2276 109.688 70.2239 109.665 70.2089C109.643 70.2351 109.616 70.2576 109.598 70.2876C109.3 70.7822 108.947 71.2281 108.529 71.6215C107.396 72.6931 106.091 72.9292 104.646 72.3821C103.611 71.9924 102.802 71.2918 102.167 70.4037C101.824 69.9279 101.542 69.4108 101.23 68.9162C101.218 68.8937 101.203 68.875 101.181 68.8375L101.192 68.8413ZM107.381 50.0504C107.133 50.4663 106.915 50.8822 106.651 51.2644C105.978 52.2461 105.192 53.1341 104.281 53.9022C103.619 54.4605 102.915 54.9626 102.054 55.1799C101.982 55.1987 101.907 55.2774 101.877 55.3486C101.693 55.7757 101.677 56.2216 101.73 56.6787C101.82 57.4356 102.246 57.9564 102.979 58.1138C103.299 58.1812 103.461 58.3424 103.525 58.6421C103.536 58.7021 103.562 58.762 103.578 58.822C103.882 60.0659 104.522 61.1188 105.421 62.0181C105.824 62.419 106.305 62.715 106.794 62.9923C108.029 63.6892 109.372 63.8354 110.745 63.6368C112.156 63.4307 113.353 62.7637 114.323 61.7183C115.106 60.8753 115.618 59.8786 115.885 58.762C115.975 58.3873 116.141 58.1625 116.543 58.0913C116.953 58.0164 117.284 57.7803 117.48 57.4019C117.796 56.7874 117.819 56.1429 117.627 55.4834C117.559 55.2586 117.42 55.2062 117.217 55.1949C116.28 55.1387 115.377 54.9177 114.508 54.5692C114.398 54.5242 114.308 54.5242 114.199 54.5654C113.778 54.7266 113.345 54.7715 112.916 54.6142C112.337 54.4043 111.975 53.9847 111.799 53.4001C111.776 53.329 111.727 53.2428 111.667 53.2053C110.406 52.4747 109.248 51.5979 108.111 50.6949C107.859 50.4963 107.63 50.2677 107.393 50.0541L107.381 50.0504ZM114.929 66.7018C113.943 66.0011 113.138 65.1917 112.852 63.989C110.745 64.9257 108.664 64.922 106.576 63.9815C106.294 65.2105 105.463 66.0236 104.462 66.7355C105.222 67.3987 106.057 67.9045 106.99 68.238C108.578 68.8075 110.192 68.8525 111.814 68.4216C112.984 68.1106 114.011 67.5223 114.925 66.7055L114.929 66.7018ZM110.497 69.6618C110.749 70.1302 111.524 70.9883 111.923 71.2655C112.348 71.5615 112.822 71.6927 113.337 71.6889C114.09 71.6814 114.752 71.4154 115.343 70.962C116.163 70.3325 116.761 69.5195 117.228 68.609C117.401 68.2717 117.401 68.2755 117.085 68.0806C116.675 67.8333 116.268 67.5785 115.862 67.3275C115.779 67.275 115.723 67.2788 115.648 67.35C115.057 67.8895 114.406 68.3467 113.695 68.7139C112.784 69.1822 111.821 69.4782 110.802 69.6056C110.7 69.6169 110.602 69.6431 110.497 69.6656V69.6618ZM108.905 69.6543C108.789 69.6356 108.706 69.6206 108.619 69.6056C108.183 69.527 107.739 69.482 107.317 69.3621C106.012 68.9911 104.838 68.3691 103.833 67.4511C103.653 67.2863 103.641 67.2863 103.431 67.4137C103.047 67.646 102.663 67.8746 102.279 68.1069C102.182 68.1668 102.091 68.2305 102.001 68.2905C102.34 69.0286 102.761 69.6918 103.295 70.2688C103.939 70.9583 104.665 71.5278 105.651 71.659C106.332 71.7489 106.956 71.6402 107.513 71.2243C108.074 70.8084 108.48 70.2614 108.901 69.6581L108.905 69.6543ZM114.609 50.7548C114.538 50.8035 114.508 50.8223 114.481 50.8447C113.955 51.3843 113.432 51.9276 112.909 52.4709C112.893 52.4859 112.882 52.5046 112.871 52.5196C112.724 52.692 112.69 52.8906 112.728 53.1041C112.841 53.7074 113.473 53.9322 113.947 53.535C113.958 53.5238 113.97 53.5088 113.985 53.5088C114.135 53.4901 114.15 53.3739 114.173 53.2615C114.267 52.7407 114.357 52.2199 114.451 51.699C114.504 51.3993 114.553 51.0995 114.613 50.7548H114.609Z" fill="black"/>
<path d="M110.746 44.7521C110.08 44.7408 109.425 44.8083 108.8 45.0668C108.53 45.1792 108.277 45.3254 108.097 45.5689C107.939 45.7825 107.724 45.7713 107.491 45.7113C107.149 45.6214 106.806 45.5015 106.46 45.4827C105.478 45.4265 104.658 45.8275 103.943 46.4719C102.875 47.4311 102.175 48.6377 101.61 49.9341C101.016 51.3092 100.632 52.7443 100.395 54.2168C100.278 54.9363 100.241 55.6707 100.199 56.4013C100.147 57.2818 100.147 58.1661 100.09 59.0466C100.045 59.7286 99.9699 60.4105 99.8645 61.0887C99.7479 61.8456 99.5861 62.595 99.4393 63.3481C99.413 63.483 99.3641 63.6179 99.3227 63.7528C99.2964 63.8465 99.3227 63.8914 99.4281 63.9102C100.621 64.1312 101.825 64.2174 103.036 64.2212C103.134 64.2212 103.236 64.2361 103.33 64.2586C103.533 64.3073 103.695 64.5247 103.691 64.7158C103.687 64.9181 103.525 65.1317 103.322 65.1654C103.119 65.1991 102.908 65.2066 102.701 65.1991C102.171 65.1804 101.64 65.1541 101.11 65.1092C100.29 65.038 99.477 64.9218 98.6793 64.7045C98.2767 64.5959 98.1413 64.3785 98.2692 63.9814C98.574 63.0146 98.7583 62.018 98.9013 61.0175C99.0104 60.2681 99.0819 59.5113 99.1308 58.7581C99.1797 57.975 99.176 57.1919 99.2061 56.4088C99.2475 55.4421 99.3603 54.4866 99.5296 53.5349C99.7968 52.0324 100.256 50.5861 100.892 49.1997C101.479 47.9182 102.201 46.7192 103.281 45.7713C104.169 44.9919 105.181 44.4936 106.385 44.4936C106.697 44.4936 107.013 44.576 107.322 44.6397C107.495 44.6771 107.634 44.6659 107.785 44.5535C108.308 44.1601 108.917 43.9577 109.557 43.8678C111.205 43.643 112.815 43.8303 114.354 44.4561C115.81 45.0481 116.969 46.0223 117.868 47.3112C118.809 48.6601 119.369 50.1664 119.715 51.7514C119.896 52.5757 120.013 53.415 120.118 54.2543C120.19 54.8164 120.201 55.3821 120.223 55.9479C120.254 56.8809 120.231 57.8214 120.302 58.7506C120.378 59.7623 120.498 60.774 120.66 61.7782C120.78 62.5275 120.999 63.2619 121.175 64.0038C121.266 64.3898 121.149 64.6183 120.761 64.7008C120.156 64.8319 119.55 64.9668 118.937 65.0342C118.086 65.1242 117.232 65.1541 116.382 65.2029C116.284 65.2103 116.182 65.1916 116.088 65.1654C115.885 65.1092 115.731 64.8956 115.739 64.697C115.746 64.5059 115.904 64.3073 116.103 64.2586C116.19 64.2361 116.277 64.2249 116.367 64.2212C117.063 64.1874 117.763 64.1762 118.459 64.12C118.982 64.0788 119.501 63.9776 120.02 63.9064C120.133 63.8914 120.118 63.8277 120.099 63.749C119.971 63.187 119.817 62.6325 119.723 62.0667C119.588 61.2573 119.49 60.4442 119.392 59.6312C119.241 58.3722 119.245 57.102 119.223 55.8355C119.189 53.9396 118.933 52.0699 118.293 50.2713C117.838 48.9899 117.206 47.8133 116.228 46.8429C115.2 45.8237 113.97 45.2167 112.559 44.9357C111.957 44.8158 111.355 44.7446 110.746 44.7483V44.7521Z" fill="black"/>
</svg>
