<svg width="90" height="75" viewBox="0 0 90 75" fill="none" xmlns="http://www.w3.org/2000/svg">
<path d="M3.5509 32.8138C3.27624 32.619 3.20099 32.3529 3.20851 32.0269C3.23861 30.8354 3.16712 29.6327 3.28 28.4524C3.54714 25.7246 5.90246 23.6563 8.66791 23.6226C9.74775 23.6076 10.5943 23.0006 10.8915 22.0226C10.8991 22.0002 10.9104 21.9814 10.9141 21.9589C11.0759 21.3594 11.0571 21.3294 10.5266 21.011C8.37819 19.7183 7.15538 17.8411 6.92587 15.3418C6.90705 15.1545 6.84685 15.0533 6.65873 14.9784C5.81216 14.6562 5.26284 14.0342 5.24779 13.1349C5.21769 11.55 5.15373 9.94626 5.34561 8.38004C5.75573 5.0715 7.41499 2.59852 10.6282 1.36578C11.3468 1.09226 12.1369 1.00608 12.897 0.833717C12.9948 0.811236 13.0926 0.792501 13.1904 0.77002C13.7548 0.77002 14.323 0.77002 14.8873 0.77002C15.4442 0.859946 16.0123 0.897415 16.5504 1.05104C17.4835 1.31333 18.4053 1.62057 19.312 1.95405C19.82 2.1414 19.8802 2.3887 19.6732 2.86456C20.2677 3.12684 20.8772 3.3554 21.4491 3.65891C22.5102 4.2172 23.3379 5.04152 23.9888 6.04196C24.2146 6.39042 24.2071 6.61524 23.9249 6.92249C23.2514 7.66063 22.9617 8.52992 22.9767 9.51911C22.988 10.5795 22.9767 11.6361 22.9767 12.6965C22.9767 12.7977 22.9805 12.8988 22.9692 13C22.9278 13.296 22.751 13.4646 22.45 13.4796C22.1565 13.4909 21.9383 13.2923 21.9232 12.9813C21.9044 12.5316 21.9157 12.082 21.9119 11.6286C21.9119 11.0441 21.9307 10.4558 21.9082 9.87132C21.8517 8.60111 22.1038 7.42832 22.9466 6.41665C22.1414 5.27758 21.0955 4.48323 19.7748 4.09355C19.1314 3.90246 18.4467 3.83501 17.7807 3.73759C17.4609 3.68888 17.1599 3.64392 17.0959 3.26548C17.032 2.88329 17.2916 2.72592 17.5963 2.60976C17.6452 2.59103 17.6942 2.5648 17.8447 2.48986C17.2803 2.34373 16.8175 2.20135 16.3434 2.10393C14.6089 1.74422 12.8744 1.71799 11.185 2.29502C8.69424 3.14558 7.2231 4.9441 6.61734 7.44331C6.4104 8.28637 6.34644 9.17439 6.29753 10.0474C6.24485 10.9692 6.28624 11.8947 6.28624 12.8164C6.28624 13.2586 6.41417 13.6332 6.8619 13.8993C6.87319 13.7756 6.88824 13.6857 6.88824 13.592C6.88824 12.985 6.86567 12.3743 6.88824 11.7673C6.97854 9.41045 9.26991 7.66813 11.5537 8.28262C12.4718 8.52992 13.3673 8.90836 14.2289 9.32052C15.399 9.88256 16.5805 10.3022 17.8973 10.2348C18.2773 10.216 18.5069 10.4409 18.5031 10.7668C18.4993 11.0816 18.2661 11.2802 17.886 11.2989C16.6143 11.3551 15.4291 11.0591 14.2778 10.527C13.3485 10.0961 12.4116 9.65775 11.4333 9.35799C9.84933 8.87089 8.31799 9.85634 7.99442 11.475C7.97937 11.5425 7.96432 11.6099 7.96808 11.6736C7.98689 12.9888 7.91917 14.3152 8.04709 15.6229C8.32176 18.463 10.9254 20.7861 13.8 20.8611C17.3932 20.9548 20.1736 18.2607 20.1774 14.6824C20.1774 13.2286 20.1774 11.7748 20.1774 10.3247C20.1774 9.9013 20.3467 9.66899 20.6778 9.654C21.0089 9.63527 21.2422 9.88631 21.2422 10.3135C21.2497 11.9134 21.3024 13.5133 21.2309 15.1133C21.0503 19.1974 17.5587 22.24 13.4689 21.9252C13.0098 21.8915 12.5583 21.7791 12.0843 21.6966C11.994 22.0339 11.9037 22.3748 11.8021 22.757C12.3175 23.1355 12.912 23.364 13.5592 23.4165C13.9919 23.454 14.4358 23.4127 14.8723 23.3715C15.2448 23.3378 15.5157 23.4802 15.5721 23.7949C15.6285 24.1134 15.4404 24.3645 15.0717 24.4319C13.7849 24.6755 12.5734 24.4619 11.4484 23.8024C11.2527 23.6863 11.1436 23.6675 10.9593 23.8361C10.346 24.4019 9.60477 24.6717 8.76949 24.6942C6.15079 24.7654 4.29587 26.6576 4.28835 29.258C4.28835 30.1835 4.27706 31.1052 4.29211 32.0307C4.29587 32.3567 4.23191 32.6265 3.95725 32.8213H3.5509V32.8138Z" fill="black"/>
<path d="M24.1888 32.8139C23.9141 32.6191 23.8464 32.3493 23.8539 32.0233C23.869 31.0566 23.8652 30.0861 23.8539 29.1194C23.8313 26.6427 21.9012 24.728 19.4142 24.6868C18.2515 24.6681 17.3222 24.1885 16.6525 23.233C16.4192 22.8995 16.4455 22.5885 16.7089 22.3974C16.9761 22.2026 17.2883 22.27 17.5179 22.6035C17.9995 23.3004 18.6692 23.6114 19.5082 23.6227C22.4467 23.6601 24.8698 26.0582 24.9262 28.9883C24.945 30.0449 24.9262 31.1053 24.9338 32.1619C24.9338 32.4542 24.8021 32.6453 24.5914 32.8139H24.185H24.1888Z" fill="black"/>
<path d="M18.6951 31.1316C18.4242 31.1316 18.1533 31.1428 17.8824 31.1316C17.5739 31.1166 17.367 30.9067 17.3557 30.622C17.3481 30.3522 17.5551 30.0937 17.8523 30.0824C18.4167 30.0637 18.9811 30.0637 19.5417 30.0824C19.8389 30.0937 20.0459 30.3522 20.0346 30.6257C20.0233 30.9067 19.8163 31.1091 19.5041 31.1316C19.3686 31.1428 19.2332 31.1353 19.0977 31.1353C18.9623 31.1353 18.8268 31.1353 18.6914 31.1353C18.6914 31.1353 18.6914 31.1353 18.6914 31.1316H18.6951Z" fill="black"/>
<path d="M33.9073 32.8138C33.6327 32.619 33.5574 32.3529 33.565 32.0269C33.5951 30.8354 33.5236 29.6327 33.6364 28.4524C33.9036 25.7246 36.2589 23.6563 39.0244 23.6226C40.1042 23.6076 40.9508 23.0006 41.248 22.0226C41.2555 22.0002 41.2668 21.9814 41.2706 21.9589C41.4324 21.3594 41.4135 21.3294 40.883 21.011C38.7346 19.7183 37.5118 17.8411 37.2823 15.3418C37.2635 15.1545 37.2033 15.0533 37.0152 14.9784C36.1686 14.6562 35.6193 14.0342 35.6042 13.1349C35.5741 11.55 35.5102 9.94626 35.7021 8.38004C36.1122 5.0715 37.7714 2.59852 40.9846 1.36578C41.7033 1.09226 42.4934 1.00608 43.2534 0.833717C43.3512 0.811236 43.4491 0.792501 43.5469 0.77002C44.1113 0.77002 44.6794 0.77002 45.2438 0.77002C45.8006 0.859946 46.3688 0.897415 46.9068 1.05104C47.8399 1.31333 48.7617 1.62057 49.6685 1.95405C50.1764 2.1414 50.2366 2.3887 50.0297 2.86456C50.6242 3.12684 51.2337 3.3554 51.8056 3.65891C52.8666 4.2172 53.6944 5.04152 54.3453 6.04196C54.571 6.39042 54.5635 6.61524 54.2813 6.92249C53.6078 7.66063 53.3181 8.52992 53.3332 9.51911C53.3444 10.5795 53.3332 11.6361 53.3332 12.6965C53.3332 12.7977 53.3369 12.8988 53.3256 13C53.2843 13.296 53.1074 13.4646 52.8064 13.4796C52.5129 13.4909 52.2947 13.2923 52.2797 12.9813C52.2608 12.5316 52.2721 12.082 52.2684 11.6286C52.2684 11.0441 52.2872 10.4558 52.2646 9.87132C52.2082 8.60111 52.4603 7.42832 53.3031 6.41665C52.4979 5.27758 51.4519 4.48323 50.1313 4.09355C49.4879 3.90246 48.8031 3.83501 48.1371 3.73759C47.8173 3.68888 47.5163 3.64392 47.4524 3.26548C47.3884 2.88329 47.648 2.72592 47.9528 2.60976C48.0017 2.59103 48.0506 2.5648 48.2011 2.48986C47.6367 2.34373 47.1739 2.20135 46.6999 2.10393C44.9653 1.74422 43.2308 1.71799 41.5415 2.29502C39.0507 3.14558 37.5795 4.9441 36.9738 7.44331C36.7668 8.28637 36.7029 9.17439 36.654 10.0474C36.6013 10.9692 36.6427 11.8947 36.6427 12.8164C36.6427 13.2586 36.7706 13.6332 37.2183 13.8993C37.2296 13.7756 37.2447 13.6857 37.2447 13.592C37.2447 12.985 37.2221 12.3743 37.2447 11.7673C37.335 9.41045 39.6264 7.66813 41.9102 8.28262C42.8282 8.52992 43.7237 8.90836 44.5853 9.32052C45.7555 9.88256 46.9369 10.3022 48.2538 10.2348C48.6338 10.216 48.8633 10.4409 48.8595 10.7668C48.8558 11.0816 48.6225 11.2802 48.2425 11.2989C46.9708 11.3551 45.7856 11.0591 44.6342 10.527C43.7049 10.0961 42.768 9.65775 41.7898 9.35799C40.2058 8.87089 38.6744 9.85634 38.3509 11.475C38.3358 11.5425 38.3208 11.6099 38.3245 11.6736C38.3433 12.9888 38.2756 14.3152 38.4035 15.6229C38.6782 18.463 41.2819 20.7861 44.1564 20.8611C47.7496 20.9548 50.5301 18.2607 50.5339 14.6824C50.5339 13.2286 50.5339 11.7748 50.5339 10.3247C50.5339 9.9013 50.7032 9.66899 51.0343 9.654C51.3654 9.63527 51.5986 9.88631 51.5986 10.3135C51.6062 11.9134 51.6588 13.5133 51.5874 15.1133C51.4068 19.1974 47.9152 22.24 43.8253 21.9252C43.3663 21.8915 42.9148 21.7791 42.4407 21.6966C42.3504 22.0339 42.2601 22.3748 42.1585 22.757C42.674 23.1355 43.2685 23.364 43.9156 23.4165C44.3483 23.454 44.7923 23.4127 45.2287 23.3715C45.6012 23.3378 45.8721 23.4802 45.9286 23.7949C45.985 24.1134 45.7969 24.3645 45.4281 24.4319C44.1414 24.6755 42.9298 24.4619 41.8048 23.8024C41.6092 23.6863 41.5001 23.6675 41.3157 23.8361C40.7024 24.4019 39.9612 24.6717 39.1259 24.6942C36.5072 24.7654 34.6523 26.6576 34.6448 29.258C34.6448 30.1835 34.6335 31.1052 34.6486 32.0307C34.6523 32.3567 34.5884 32.6265 34.3137 32.8213H33.9073V32.8138Z" fill="black"/>
<path d="M54.5452 32.8139C54.2706 32.6191 54.2028 32.3493 54.2104 32.0233C54.2254 31.0566 54.2217 30.0861 54.2104 29.1194C54.1878 26.6427 52.2576 24.728 49.7706 24.6868C48.608 24.6681 47.6787 24.1885 47.0089 23.233C46.7757 22.8995 46.802 22.5885 47.0654 22.3974C47.3325 22.2026 47.6448 22.27 47.8743 22.6035C48.3559 23.3004 49.0256 23.6114 49.8647 23.6227C52.8032 23.6601 55.2262 26.0582 55.2827 28.9883C55.3015 30.0449 55.2827 31.1053 55.2902 32.1619C55.2902 32.4542 55.1585 32.6453 54.9478 32.8139H54.5415H54.5452Z" fill="black"/>
<path d="M49.0516 31.1316C48.7807 31.1316 48.5098 31.1428 48.2389 31.1316C47.9303 31.1166 47.7234 30.9067 47.7121 30.622C47.7046 30.3522 47.9115 30.0937 48.2088 30.0824C48.7731 30.0637 49.3375 30.0637 49.8981 30.0824C50.1954 30.0937 50.4023 30.3522 50.391 30.6257C50.3797 30.9067 50.1728 31.1091 49.8605 31.1316C49.7251 31.1428 49.5896 31.1353 49.4542 31.1353C49.3187 31.1353 49.1833 31.1353 49.0478 31.1353C49.0478 31.1353 49.0478 31.1353 49.0478 31.1316H49.0516Z" fill="black"/>
<path d="M64.2648 32.8138C63.9901 32.619 63.9149 32.3529 63.9224 32.0269C63.9525 30.8354 63.881 29.6327 63.9939 28.4524C64.261 25.7246 66.6163 23.6563 69.3818 23.6226C70.4616 23.6076 71.3082 23.0006 71.6054 22.0226C71.6129 22.0002 71.6242 21.9814 71.628 21.9589C71.7898 21.3594 71.771 21.3294 71.2405 21.011C69.0921 19.7183 67.8692 17.8411 67.6397 15.3418C67.6209 15.1545 67.5607 15.0533 67.3726 14.9784C66.526 14.6562 65.9767 14.0342 65.9617 13.1349C65.9316 11.55 65.8676 9.94626 66.0595 8.38004C66.4696 5.0715 68.1289 2.59852 71.342 1.36578C72.0607 1.09226 72.8508 1.00608 73.6108 0.833717C73.7087 0.811236 73.8065 0.792501 73.9043 0.77002C74.4687 0.77002 75.0368 0.77002 75.6012 0.77002C76.158 0.859946 76.7262 0.897415 77.2642 1.05104C78.1973 1.31333 79.1191 1.62057 80.0259 1.95405C80.5338 2.1414 80.594 2.3887 80.3871 2.86456C80.9816 3.12684 81.5911 3.3554 82.163 3.65891C83.224 4.2172 84.0518 5.04152 84.7027 6.04196C84.9284 6.39042 84.9209 6.61524 84.6387 6.92249C83.9652 7.66063 83.6755 8.52992 83.6906 9.51911C83.7019 10.5795 83.6906 11.6361 83.6906 12.6965C83.6906 12.7977 83.6943 12.8988 83.6831 13C83.6417 13.296 83.4648 13.4646 83.1638 13.4796C82.8704 13.4909 82.6521 13.2923 82.6371 12.9813C82.6183 12.5316 82.6296 12.082 82.6258 11.6286C82.6258 11.0441 82.6446 10.4558 82.622 9.87132C82.5656 8.60111 82.8177 7.42832 83.6605 6.41665C82.8553 5.27758 81.8093 4.48323 80.4887 4.09355C79.8453 3.90246 79.1605 3.83501 78.4946 3.73759C78.1747 3.68888 77.8737 3.64392 77.8098 3.26548C77.7458 2.88329 78.0054 2.72592 78.3102 2.60976C78.3591 2.59103 78.408 2.5648 78.5585 2.48986C77.9942 2.34373 77.5314 2.20135 77.0573 2.10393C75.3228 1.74422 73.5883 1.71799 71.8989 2.29502C69.4081 3.14558 67.937 4.9441 67.3312 7.44331C67.1243 8.28637 67.0603 9.17439 67.0114 10.0474C66.9587 10.9692 67.0001 11.8947 67.0001 12.8164C67.0001 13.2586 67.128 13.6332 67.5758 13.8993C67.5871 13.7756 67.6021 13.6857 67.6021 13.592C67.6021 12.985 67.5795 12.3743 67.6021 11.7673C67.6924 9.41045 69.9838 7.66813 72.2676 8.28262C73.1857 8.52992 74.0811 8.90836 74.9428 9.32052C76.1129 9.88256 77.2943 10.3022 78.6112 10.2348C78.9912 10.216 79.2207 10.4409 79.217 10.7668C79.2132 11.0816 78.9799 11.2802 78.5999 11.2989C77.3282 11.3551 76.143 11.0591 74.9917 10.527C74.0623 10.0961 73.1255 9.65775 72.1472 9.35799C70.5632 8.87089 69.0319 9.85634 68.7083 11.475C68.6932 11.5425 68.6782 11.6099 68.6819 11.6736C68.7008 12.9888 68.633 14.3152 68.761 15.6229C69.0356 18.463 71.6393 20.7861 74.5138 20.8611C78.107 20.9548 80.8875 18.2607 80.8913 14.6824C80.8913 13.2286 80.8913 11.7748 80.8913 10.3247C80.8913 9.9013 81.0606 9.66899 81.3917 9.654C81.7228 9.63527 81.9561 9.88631 81.9561 10.3135C81.9636 11.9134 82.0163 13.5133 81.9448 15.1133C81.7642 19.1974 78.2726 22.24 74.1827 21.9252C73.7237 21.8915 73.2722 21.7791 72.7981 21.6966C72.7078 22.0339 72.6175 22.3748 72.5159 22.757C73.0314 23.1355 73.6259 23.364 74.273 23.4165C74.7057 23.454 75.1497 23.4127 75.5861 23.3715C75.9586 23.3378 76.2295 23.4802 76.286 23.7949C76.3424 24.1134 76.1543 24.3645 75.7856 24.4319C74.4988 24.6755 73.2873 24.4619 72.1623 23.8024C71.9666 23.6863 71.8575 23.6675 71.6731 23.8361C71.0599 24.4019 70.3186 24.6717 69.4834 24.6942C66.8647 24.7654 65.0097 26.6576 65.0022 29.258C65.0022 30.1835 64.9909 31.1052 65.006 32.0307C65.0097 32.3567 64.9458 32.6265 64.6711 32.8213H64.2648V32.8138Z" fill="black"/>
<path d="M84.9026 32.8139C84.628 32.6191 84.5603 32.3493 84.5678 32.0233C84.5828 31.0566 84.5791 30.0861 84.5678 29.1194C84.5452 26.6427 82.615 24.728 80.128 24.6868C78.9654 24.6681 78.0361 24.1885 77.3663 23.233C77.1331 22.8995 77.1594 22.5885 77.4228 22.3974C77.6899 22.2026 78.0022 22.27 78.2317 22.6035C78.7133 23.3004 79.3831 23.6114 80.2221 23.6227C83.1606 23.6601 85.5837 26.0582 85.6401 28.9883C85.6589 30.0449 85.6401 31.1053 85.6476 32.1619C85.6476 32.4542 85.5159 32.6453 85.3052 32.8139H84.8989H84.9026Z" fill="black"/>
<path d="M79.409 31.1316C79.1381 31.1316 78.8672 31.1428 78.5963 31.1316C78.2878 31.1166 78.0808 30.9067 78.0695 30.622C78.062 30.3522 78.2689 30.0937 78.5662 30.0824C79.1306 30.0637 79.6949 30.0637 80.2556 30.0824C80.5528 30.0937 80.7597 30.3522 80.7484 30.6257C80.7372 30.9067 80.5302 31.1091 80.2179 31.1316C80.0825 31.1428 79.947 31.1353 79.8116 31.1353C79.6761 31.1353 79.5407 31.1353 79.4052 31.1353C79.4052 31.1353 79.4052 31.1353 79.4052 31.1316H79.409Z" fill="black"/>
<path d="M4.64815 68.8413C4.56914 68.8937 4.49013 68.9349 4.4224 68.9874C3.55326 69.6469 2.77443 70.3887 2.25896 71.3704C1.90529 72.0486 1.73597 72.7755 1.67577 73.5362C1.66072 73.7385 1.66449 73.9408 1.63815 74.1432C1.6231 74.2556 1.58547 74.3792 1.52527 74.4729C1.4124 74.6453 1.2017 74.709 1.03615 74.6528C0.806635 74.5778 0.678711 74.4055 0.678711 74.1619C0.678711 73.5961 0.723859 73.0341 0.855546 72.4795C1.21298 70.9321 2.05202 69.6843 3.25979 68.6764C3.7 68.3092 4.15903 67.9645 4.6331 67.646C5.17114 67.29 5.74304 66.9903 6.28861 66.6456C6.89061 66.2634 7.50766 65.9037 8.04193 65.4278C8.36551 65.1393 8.66275 64.8208 8.84711 64.4236C8.96375 64.1801 9.02771 63.9065 9.11049 63.648C9.14811 63.5319 9.0992 63.4532 9.00137 63.3857C8.2564 62.8537 7.63935 62.1942 7.13893 61.4336C6.69496 60.7554 6.36009 60.0247 6.14187 59.2454C6.09672 59.0842 6.02147 59.0018 5.85592 58.9456C5.32164 58.7658 4.90024 58.4285 4.62182 57.9414C4.0913 57.0197 3.99724 56.0492 4.40735 55.0563C4.49765 54.8352 4.65568 54.6366 4.81747 54.4568C4.91153 54.3519 5.06955 54.2732 5.20877 54.2507C5.55492 54.1945 5.85592 54.0484 6.1381 53.8648C7.37597 53.0592 8.39185 52.025 9.23841 50.8223C9.60714 50.2977 9.92695 49.7469 10.1715 49.1549C10.1828 49.1324 10.1941 49.1062 10.2054 49.0837C10.3897 48.7277 10.7208 48.6603 11.0256 48.9263C11.1535 49.035 11.2702 49.1549 11.3943 49.2635C12.5795 50.3164 13.8211 51.2944 15.1832 52.1149C15.3562 52.2199 15.3412 52.2086 15.4766 52.0475C15.7701 51.7028 16.0711 51.3656 16.3834 51.0396C16.8575 50.5412 17.3428 50.0541 17.8207 49.5633C18.0502 49.3235 18.3136 49.1998 18.6484 49.3085C19.0059 49.4246 19.2128 49.7506 19.1526 50.1178C19.0134 50.9497 18.8629 51.7815 18.7199 52.617C18.6898 52.7894 18.6748 52.9692 18.6409 53.1416C18.6071 53.3102 18.5657 53.4751 18.5092 53.6362C18.4754 53.7299 18.4979 53.7673 18.5845 53.7973C19.2429 54.0184 19.9202 54.1645 20.6162 54.2095C20.778 54.2207 20.9436 54.2132 21.0978 54.2507C21.2295 54.2807 21.3687 54.3369 21.4703 54.4231C21.8654 54.7603 22.046 55.2137 22.125 55.7158C22.2416 56.4464 22.1438 57.1433 21.7977 57.799C21.5117 58.3461 21.0753 58.7358 20.4883 58.9381C20.3228 58.9981 20.24 59.0805 20.1873 59.2604C19.7734 60.7291 18.9795 61.9619 17.8508 62.9886C17.6852 63.1384 17.4933 63.2583 17.309 63.3857C17.23 63.4419 17.2036 63.4981 17.2149 63.5956C17.309 64.27 17.6514 64.8133 18.1367 65.2704C18.3813 65.5027 18.6409 65.7276 18.9231 65.9074C19.796 66.4732 20.6952 67.0015 21.5644 67.5748C22.1137 67.9383 22.6405 68.3429 23.1559 68.7551C23.8746 69.3246 24.4352 70.0328 24.8679 70.8384C25.3269 71.6964 25.5827 72.6144 25.6429 73.5886C25.6542 73.761 25.6806 73.9333 25.6618 74.102C25.6467 74.2406 25.6091 74.3905 25.5301 74.5029C25.4398 74.6378 25.2855 74.7202 25.1087 74.6715C24.9093 74.619 24.7512 74.5029 24.7211 74.2893C24.6873 74.0532 24.6722 73.8134 24.6572 73.5774C24.5706 72.0411 23.9235 70.7747 22.806 69.733C22.4523 69.407 22.0723 69.111 21.681 68.7813C21.5832 68.9499 21.5079 69.0773 21.4365 69.2085C20.9323 70.1752 20.2776 71.022 19.4085 71.6889C18.513 72.3784 17.5046 72.7643 16.3571 72.6481C15.7475 72.5882 15.1945 72.3671 14.7016 71.9774C14.1109 71.5128 13.6481 70.9433 13.2342 70.3288C13.2154 70.2988 13.1928 70.2688 13.1702 70.2389C13.1627 70.2276 13.1439 70.2239 13.1213 70.2089C13.0987 70.2351 13.0724 70.2576 13.0536 70.2876C12.7564 70.7822 12.4027 71.2281 11.985 71.6215C10.8525 72.6931 9.54694 72.9292 8.10213 72.3821C7.06744 71.9924 6.25851 71.2918 5.62264 70.4037C5.28026 69.9279 4.99807 69.4108 4.68578 68.9162C4.67449 68.8937 4.65944 68.875 4.63687 68.8375L4.64815 68.8413ZM10.8375 50.0504C10.5892 50.4663 10.3709 50.8822 10.1075 51.2644C9.43406 52.2461 8.6477 53.1341 7.73717 53.9022C7.07497 54.4605 6.37138 54.9626 5.50977 55.1799C5.43828 55.1987 5.36303 55.2774 5.33293 55.3486C5.14857 55.7757 5.13352 56.2216 5.18619 56.6787C5.27649 57.4356 5.70165 57.9564 6.43534 58.1138C6.75516 58.1812 6.91695 58.3424 6.98091 58.6421C6.9922 58.7021 7.01853 58.762 7.03358 58.822C7.33835 60.0659 7.97797 61.1188 8.87721 62.0181C9.2798 62.419 9.7614 62.715 10.2505 62.9923C11.4846 63.6892 12.8278 63.8354 14.2012 63.6368C15.6121 63.4307 16.8086 62.7637 17.7793 61.7183C18.5619 60.8753 19.0736 59.8786 19.3407 58.762C19.431 58.3873 19.5966 58.1625 19.9992 58.0913C20.4093 58.0164 20.7404 57.7803 20.936 57.4019C21.2521 56.7874 21.2747 56.1429 21.0828 55.4834C21.0151 55.2586 20.8758 55.2062 20.6727 55.1949C19.7358 55.1387 18.8328 54.9177 17.9637 54.5692C17.8545 54.5242 17.7642 54.5242 17.6551 54.5654C17.2337 54.7266 16.801 54.7715 16.3721 54.6142C15.7927 54.4043 15.4315 53.9847 15.2547 53.4001C15.2321 53.329 15.1832 53.2428 15.123 53.2053C13.8625 52.4747 12.7037 51.5979 11.5674 50.6949C11.3153 50.4963 11.0858 50.2677 10.8488 50.0541L10.8375 50.0504ZM18.3851 66.7018C17.3993 66.0011 16.5941 65.1917 16.3082 63.989C14.2012 64.9257 12.1205 64.922 10.0323 63.9815C9.75011 65.2105 8.9186 66.0236 7.91777 66.7355C8.6778 67.3987 9.51307 67.9045 10.4462 68.238C12.034 68.8075 13.6481 68.8525 15.2697 68.4216C16.4398 68.1106 17.467 67.5223 18.3813 66.7055L18.3851 66.7018ZM13.9528 69.6618C14.2049 70.1302 14.98 70.9883 15.3788 71.2655C15.804 71.5615 16.2781 71.6927 16.7935 71.6889C17.546 71.6814 18.2082 71.4154 18.7989 70.962C19.6192 70.3325 20.2174 69.5195 20.684 68.609C20.857 68.2717 20.857 68.2755 20.541 68.0806C20.1309 67.8333 19.7245 67.5785 19.3182 67.3275C19.2354 67.275 19.1789 67.2788 19.1037 67.35C18.513 67.8895 17.8621 68.3467 17.151 68.7139C16.2404 69.1822 15.2772 69.4782 14.2576 69.6056C14.156 69.6169 14.0582 69.6431 13.9528 69.6656V69.6618ZM12.3613 69.6543C12.2447 69.6356 12.1619 69.6206 12.0753 69.6056C11.6389 69.527 11.1949 69.482 10.7735 69.3621C9.46792 68.9911 8.29402 68.3691 7.28943 67.4511C7.10883 67.2863 7.09755 67.2863 6.88685 67.4137C6.50307 67.646 6.11929 67.8746 5.73552 68.1069C5.63769 68.1668 5.54739 68.2305 5.45709 68.2905C5.79572 69.0286 6.21712 69.6918 6.7514 70.2688C7.39478 70.9583 8.12095 71.5278 9.10672 71.659C9.78774 71.7489 10.4123 71.6402 10.9692 71.2243C11.5298 70.8084 11.9361 70.2614 12.3575 69.6581L12.3613 69.6543ZM18.0653 50.7548C17.9938 50.8035 17.9637 50.8223 17.9373 50.8447C17.4106 51.3843 16.8876 51.9276 16.3646 52.4709C16.3495 52.4859 16.3383 52.5046 16.327 52.5196C16.1802 52.692 16.1464 52.8906 16.184 53.1041C16.2969 53.7074 16.929 53.9322 17.403 53.535C17.4143 53.5238 17.4256 53.5088 17.4407 53.5088C17.5912 53.4901 17.6062 53.3739 17.6288 53.2615C17.7229 52.7407 17.8132 52.2199 17.9072 51.699C17.9599 51.3993 18.0088 51.0995 18.069 50.7548H18.0653Z" fill="black"/>
<path d="M14.2017 44.7521C13.5358 44.7408 12.8811 44.8083 12.2565 45.0668C11.9856 45.1792 11.7335 45.3254 11.5529 45.5689C11.3949 45.7825 11.1804 45.7713 10.9472 45.7113C10.6048 45.6214 10.2624 45.5015 9.91623 45.4827C8.93422 45.4265 8.11399 45.8275 7.39912 46.4719C6.33056 47.4311 5.63074 48.6377 5.06636 49.9341C4.47189 51.3092 4.08811 52.7443 3.85108 54.2168C3.73444 54.9363 3.69681 55.6707 3.65542 56.4013C3.60275 57.2818 3.60275 58.1661 3.54631 59.0466C3.50116 59.7286 3.42591 60.4105 3.32056 61.0887C3.20392 61.8456 3.04214 62.595 2.8954 63.3481C2.86906 63.483 2.82015 63.6179 2.77876 63.7528C2.75242 63.8465 2.77876 63.8914 2.88411 63.9102C4.07682 64.1312 5.28083 64.2174 6.49235 64.2212C6.59018 64.2212 6.69177 64.2361 6.78583 64.2586C6.989 64.3073 7.15079 64.5247 7.14703 64.7158C7.14327 64.9181 6.98148 65.1317 6.7783 65.1654C6.57513 65.1991 6.36443 65.2066 6.15749 65.1991C5.62698 65.1804 5.09646 65.1541 4.56595 65.1092C3.74572 65.038 2.93302 64.9218 2.13537 64.7045C1.73278 64.5959 1.59733 64.3785 1.72526 63.9814C2.03002 63.0146 2.21438 62.018 2.35736 61.0175C2.46647 60.2681 2.53796 59.5113 2.58687 58.7581C2.63579 57.975 2.63202 57.1919 2.66212 56.4088C2.70351 55.4421 2.81639 54.4866 2.9857 53.5349C3.25284 52.0324 3.71186 50.5861 4.34773 49.1997C4.93468 47.9182 5.65708 46.7192 6.73692 45.7713C7.62487 44.9919 8.63698 44.4936 9.84098 44.4936C10.1533 44.4936 10.4693 44.576 10.7778 44.6397C10.9509 44.6771 11.0901 44.6659 11.2406 44.5535C11.7636 44.1601 12.3732 43.9577 13.0128 43.8678C14.6608 43.643 16.2711 43.8303 17.81 44.4561C19.2661 45.0481 20.4249 46.0223 21.3242 47.3112C22.2648 48.6601 22.8254 50.1664 23.1715 51.7514C23.3521 52.5757 23.4688 53.415 23.5741 54.2543C23.6456 54.8164 23.6569 55.3821 23.6795 55.9479C23.7096 56.8809 23.687 57.8214 23.7585 58.7506C23.8337 59.7623 23.9541 60.774 24.1159 61.7782C24.2363 62.5275 24.4546 63.2619 24.6314 64.0038C24.7217 64.3898 24.6051 64.6183 24.2175 64.7008C23.6118 64.8319 23.006 64.9668 22.3927 65.0342C21.5424 65.1242 20.6883 65.1541 19.838 65.2029C19.7401 65.2103 19.6385 65.1916 19.5445 65.1654C19.3413 65.1092 19.187 64.8956 19.1946 64.697C19.2021 64.5059 19.3601 64.3073 19.5595 64.2586C19.6461 64.2361 19.7326 64.2249 19.8229 64.2212C20.519 64.1874 21.2188 64.1762 21.9149 64.12C22.4379 64.0788 22.9571 63.9776 23.4763 63.9064C23.5892 63.8914 23.5741 63.8277 23.5553 63.749C23.4274 63.187 23.2731 62.6325 23.1791 62.0667C23.0436 61.2573 22.9458 60.4442 22.848 59.6312C22.6975 58.3722 22.7012 57.102 22.6787 55.8355C22.6448 53.9396 22.3889 52.0699 21.7493 50.2713C21.2941 48.9899 20.662 47.8133 19.6837 46.8429C18.6565 45.8237 17.4262 45.2167 16.0153 44.9357C15.4133 44.8158 14.8113 44.7446 14.2017 44.7483V44.7521Z" fill="black"/>
<path d="M36.6921 68.8413C36.6131 68.8937 36.5341 68.9349 36.4663 68.9874C35.5972 69.6469 34.8184 70.3887 34.3029 71.3704C33.9492 72.0486 33.7799 72.7755 33.7197 73.5362C33.7047 73.7385 33.7084 73.9408 33.6821 74.1432C33.667 74.2556 33.6294 74.3792 33.5692 74.4729C33.4563 74.6453 33.2456 74.709 33.0801 74.6528C32.8506 74.5778 32.7227 74.4055 32.7227 74.1619C32.7227 73.5961 32.7678 73.0341 32.8995 72.4795C33.2569 70.9321 34.096 69.6843 35.3037 68.6764C35.7439 68.3092 36.203 67.9645 36.677 67.646C37.2151 67.29 37.787 66.9903 38.3326 66.6456C38.9346 66.2634 39.5516 65.9037 40.0859 65.4278C40.4095 65.1393 40.7067 64.8208 40.8911 64.4236C41.0077 64.1801 41.0717 63.9065 41.1544 63.648C41.1921 63.5319 41.1431 63.4532 41.0453 63.3857C40.3003 62.8537 39.6833 62.1942 39.1829 61.4336C38.7389 60.7554 38.404 60.0247 38.1858 59.2454C38.1407 59.0842 38.0654 59.0018 37.8999 58.9456C37.3656 58.7658 36.9442 58.4285 36.6658 57.9414C36.1352 57.0197 36.0412 56.0492 36.4513 55.0563C36.5416 54.8352 36.6996 54.6366 36.8614 54.4568C36.9555 54.3519 37.1135 54.2732 37.2527 54.2507C37.5989 54.1945 37.8999 54.0484 38.1821 53.8648C39.4199 53.0592 40.4358 52.025 41.2824 50.8223C41.6511 50.2977 41.9709 49.7469 42.2155 49.1549C42.2267 49.1324 42.238 49.1062 42.2493 49.0837C42.4337 48.7277 42.7648 48.6603 43.0695 48.9263C43.1975 49.035 43.3141 49.1549 43.4383 49.2635C44.6235 50.3164 45.8651 51.2944 47.2271 52.1149C47.4002 52.2199 47.3851 52.2086 47.5206 52.0475C47.8141 51.7028 48.1151 51.3656 48.4274 51.0396C48.9014 50.5412 49.3868 50.0541 49.8646 49.5633C50.0941 49.3235 50.3575 49.1998 50.6924 49.3085C51.0498 49.4246 51.2568 49.7506 51.1966 50.1178C51.0573 50.9497 50.9068 51.7815 50.7639 52.617C50.7338 52.7894 50.7187 52.9692 50.6849 53.1416C50.651 53.3102 50.6096 53.4751 50.5532 53.6362C50.5193 53.7299 50.5419 53.7673 50.6284 53.7973C51.2869 54.0184 51.9641 54.1645 52.6602 54.2095C52.822 54.2207 52.9875 54.2132 53.1418 54.2507C53.2735 54.2807 53.4127 54.3369 53.5143 54.4231C53.9093 54.7603 54.0899 55.2137 54.1689 55.7158C54.2856 56.4464 54.1878 57.1433 53.8416 57.799C53.5557 58.3461 53.1192 58.7358 52.5323 58.9381C52.3667 58.9981 52.2839 59.0805 52.2312 59.2604C51.8174 60.7291 51.0235 61.9619 49.8947 62.9886C49.7292 63.1384 49.5373 63.2583 49.3529 63.3857C49.2739 63.4419 49.2476 63.4981 49.2589 63.5956C49.3529 64.27 49.6953 64.8133 50.1807 65.2704C50.4252 65.5027 50.6849 65.7276 50.967 65.9074C51.8399 66.4732 52.7392 67.0015 53.6083 67.5748C54.1577 67.9383 54.6844 68.3429 55.1999 68.7551C55.9185 69.3246 56.4791 70.0328 56.9118 70.8384C57.3708 71.6964 57.6267 72.6144 57.6869 73.5886C57.6982 73.761 57.7245 73.9333 57.7057 74.102C57.6906 74.2406 57.653 74.3905 57.574 74.5029C57.4837 74.6378 57.3294 74.7202 57.1526 74.6715C56.9532 74.619 56.7952 74.5029 56.7651 74.2893C56.7312 74.0532 56.7162 73.8134 56.7011 73.5774C56.6146 72.0411 55.9674 70.7747 54.85 69.733C54.4963 69.407 54.1163 69.111 53.725 68.7813C53.6271 68.9499 53.5519 69.0773 53.4804 69.2085C52.9762 70.1752 52.3215 71.022 51.4524 71.6889C50.5569 72.3784 49.5486 72.7643 48.401 72.6481C47.7915 72.5882 47.2384 72.3671 46.7455 71.9774C46.1548 71.5128 45.692 70.9433 45.2781 70.3288C45.2593 70.2988 45.2367 70.2688 45.2142 70.2389C45.2066 70.2276 45.1878 70.2239 45.1653 70.2089C45.1427 70.2351 45.1164 70.2576 45.0975 70.2876C44.8003 70.7822 44.4466 71.2281 44.029 71.6215C42.8965 72.6931 41.5909 72.9292 40.1461 72.3821C39.1114 71.9924 38.3025 71.2918 37.6666 70.4037C37.3242 69.9279 37.042 69.4108 36.7297 68.9162C36.7184 68.8937 36.7034 68.875 36.6808 68.8375L36.6921 68.8413ZM42.8814 50.0504C42.6331 50.4663 42.4149 50.8822 42.1515 51.2644C41.478 52.2461 40.6916 53.1341 39.7811 53.9022C39.1189 54.4605 38.4153 54.9626 37.5537 55.1799C37.4822 55.1987 37.407 55.2774 37.3769 55.3486C37.1925 55.7757 37.1775 56.2216 37.2301 56.6787C37.3204 57.4356 37.7456 57.9564 38.4793 58.1138C38.7991 58.1812 38.9609 58.3424 39.0249 58.6421C39.0361 58.7021 39.0625 58.762 39.0775 58.822C39.3823 60.0659 40.0219 61.1188 40.9212 62.0181C41.3237 62.419 41.8053 62.715 42.2945 62.9923C43.5286 63.6892 44.8718 63.8354 46.2451 63.6368C47.656 63.4307 48.8525 62.7637 49.8232 61.7183C50.6058 60.8753 51.1175 59.8786 51.3847 58.762C51.475 58.3873 51.6405 58.1625 52.0431 58.0913C52.4532 58.0164 52.7843 57.7803 52.98 57.4019C53.296 56.7874 53.3186 56.1429 53.1267 55.4834C53.059 55.2586 52.9198 55.2062 52.7166 55.1949C51.7797 55.1387 50.8767 54.9177 50.0076 54.5692C49.8985 54.5242 49.8082 54.5242 49.6991 54.5654C49.2777 54.7266 48.845 54.7715 48.4161 54.6142C47.8366 54.4043 47.4754 53.9847 47.2986 53.4001C47.276 53.329 47.2271 53.2428 47.1669 53.2053C45.9065 52.4747 44.7476 51.5979 43.6113 50.6949C43.3593 50.4963 43.1297 50.2677 42.8927 50.0541L42.8814 50.0504ZM50.429 66.7018C49.4432 66.0011 48.6381 65.1917 48.3521 63.989C46.2451 64.9257 44.1644 64.922 42.0762 63.9815C41.7941 65.2105 40.9625 66.0236 39.9617 66.7355C40.7217 67.3987 41.557 67.9045 42.4901 68.238C44.0779 68.8075 45.692 68.8525 47.3137 68.4216C48.4838 68.1106 49.511 67.5223 50.4252 66.7055L50.429 66.7018ZM45.9968 69.6618C46.2489 70.1302 47.0239 70.9883 47.4228 71.2655C47.8479 71.5615 48.322 71.6927 48.8375 71.6889C49.59 71.6814 50.2522 71.4154 50.8429 70.962C51.6631 70.3325 52.2613 69.5195 52.7279 68.609C52.901 68.2717 52.901 68.2755 52.5849 68.0806C52.1748 67.8333 51.7685 67.5785 51.3621 67.3275C51.2793 67.275 51.2229 67.2788 51.1476 67.35C50.5569 67.8895 49.906 68.3467 49.1949 68.7139C48.2844 69.1822 47.3212 69.4782 46.3015 69.6056C46.2 69.6169 46.1021 69.6431 45.9968 69.6656V69.6618ZM44.4052 69.6543C44.2886 69.6356 44.2058 69.6206 44.1193 69.6056C43.6828 69.527 43.2389 69.482 42.8175 69.3621C41.5119 68.9911 40.338 68.3691 39.3334 67.4511C39.1528 67.2863 39.1415 67.2863 38.9308 67.4137C38.547 67.646 38.1632 67.8746 37.7795 68.1069C37.6816 68.1668 37.5913 68.2305 37.501 68.2905C37.8397 69.0286 38.2611 69.6918 38.7953 70.2688C39.4387 70.9583 40.1649 71.5278 41.1507 71.659C41.8317 71.7489 42.4563 71.6402 43.0131 71.2243C43.5737 70.8084 43.9801 70.2614 44.4015 69.6581L44.4052 69.6543ZM50.1092 50.7548C50.0377 50.8035 50.0076 50.8223 49.9813 50.8447C49.4545 51.3843 48.9315 51.9276 48.4085 52.4709C48.3935 52.4859 48.3822 52.5046 48.3709 52.5196C48.2242 52.692 48.1903 52.8906 48.2279 53.1041C48.3408 53.7074 48.9729 53.9322 49.447 53.535C49.4583 53.5238 49.4696 53.5088 49.4846 53.5088C49.6351 53.4901 49.6502 53.3739 49.6727 53.2615C49.7668 52.7407 49.8571 52.2199 49.9512 51.699C50.0038 51.3993 50.0528 51.0995 50.113 50.7548H50.1092Z" fill="black"/>
<path d="M46.2457 44.7521C45.5797 44.7408 44.925 44.8083 44.3005 45.0668C44.0296 45.1792 43.7775 45.3254 43.5969 45.5689C43.4388 45.7825 43.2244 45.7713 42.9911 45.7113C42.6487 45.6214 42.3063 45.5015 41.9602 45.4827C40.9782 45.4265 40.1579 45.8275 39.4431 46.4719C38.3745 47.4311 37.6747 48.6377 37.1103 49.9341C36.5158 51.3092 36.1321 52.7443 35.895 54.2168C35.7784 54.9363 35.7408 55.6707 35.6994 56.4013C35.6467 57.2818 35.6467 58.1661 35.5903 59.0466C35.5451 59.7286 35.4699 60.4105 35.3645 61.0887C35.2479 61.8456 35.0861 62.595 34.9393 63.3481C34.913 63.483 34.8641 63.6179 34.8227 63.7528C34.7964 63.8465 34.8227 63.8914 34.9281 63.9102C36.1208 64.1312 37.3248 64.2174 38.5363 64.2212C38.6341 64.2212 38.7357 64.2361 38.8298 64.2586C39.0329 64.3073 39.1947 64.5247 39.191 64.7158C39.1872 64.9181 39.0254 65.1317 38.8222 65.1654C38.6191 65.1991 38.4084 65.2066 38.2014 65.1991C37.6709 65.1804 37.1404 65.1541 36.6099 65.1092C35.7897 65.038 34.977 64.9218 34.1793 64.7045C33.7767 64.5959 33.6413 64.3785 33.7692 63.9814C34.074 63.0146 34.2583 62.018 34.4013 61.0175C34.5104 60.2681 34.5819 59.5113 34.6308 58.7581C34.6797 57.975 34.676 57.1919 34.7061 56.4088C34.7475 55.4421 34.8603 54.4866 35.0296 53.5349C35.2968 52.0324 35.7558 50.5861 36.3917 49.1997C36.9786 47.9182 37.701 46.7192 38.7809 45.7713C39.6688 44.9919 40.6809 44.4936 41.8849 44.4936C42.1972 44.4936 42.5133 44.576 42.8218 44.6397C42.9949 44.6771 43.1341 44.6659 43.2846 44.5535C43.8076 44.1601 44.4171 43.9577 45.0567 43.8678C46.7047 43.643 48.3151 43.8303 49.8539 44.4561C51.31 45.0481 52.4689 46.0223 53.3681 47.3112C54.3087 48.6601 54.8693 50.1664 55.2155 51.7514C55.3961 52.5757 55.5127 53.415 55.6181 54.2543C55.6896 54.8164 55.7009 55.3821 55.7234 55.9479C55.7535 56.8809 55.731 57.8214 55.8024 58.7506C55.8777 59.7623 55.9981 60.774 56.1599 61.7782C56.2803 62.5275 56.4985 63.2619 56.6753 64.0038C56.7656 64.3898 56.649 64.6183 56.2615 64.7008C55.6557 64.8319 55.0499 64.9668 54.4367 65.0342C53.5863 65.1242 52.7322 65.1541 51.8819 65.2029C51.7841 65.2103 51.6825 65.1916 51.5884 65.1654C51.3853 65.1092 51.231 64.8956 51.2385 64.697C51.246 64.5059 51.4041 64.3073 51.6035 64.2586C51.69 64.2361 51.7766 64.2249 51.8669 64.2212C52.5629 64.1874 53.2627 64.1762 53.9588 64.12C54.4818 64.0788 55.001 63.9776 55.5203 63.9064C55.6331 63.8914 55.6181 63.8277 55.5993 63.749C55.4713 63.187 55.3171 62.6325 55.223 62.0667C55.0876 61.2573 54.9897 60.4442 54.8919 59.6312C54.7414 58.3722 54.7452 57.102 54.7226 55.8355C54.6887 53.9396 54.4329 52.0699 53.7933 50.2713C53.338 48.9899 52.7059 47.8133 51.7276 46.8429C50.7005 45.8237 49.4701 45.2167 48.0592 44.9357C47.4572 44.8158 46.8552 44.7446 46.2457 44.7483V44.7521Z" fill="black"/>
<path d="M68.7351 68.8413C68.6561 68.8937 68.577 68.9349 68.5093 68.9874C67.6402 69.6469 66.8613 70.3887 66.3459 71.3704C65.9922 72.0486 65.8229 72.7755 65.7627 73.5362C65.7476 73.7385 65.7514 73.9408 65.7251 74.1432C65.71 74.2556 65.6724 74.3792 65.6122 74.4729C65.4993 74.6453 65.2886 74.709 65.1231 74.6528C64.8935 74.5778 64.7656 74.4055 64.7656 74.1619C64.7656 73.5961 64.8108 73.0341 64.9425 72.4795C65.2999 70.9321 66.1389 69.6843 67.3467 68.6764C67.7869 68.3092 68.2459 67.9645 68.72 67.646C69.2581 67.29 69.83 66.9903 70.3755 66.6456C70.9775 66.2634 71.5946 65.9037 72.1288 65.4278C72.4524 65.1393 72.7497 64.8208 72.934 64.4236C73.0507 64.1801 73.1146 63.9065 73.1974 63.648C73.235 63.5319 73.1861 63.4532 73.0883 63.3857C72.3433 62.8537 71.7263 62.1942 71.2258 61.4336C70.7819 60.7554 70.447 60.0247 70.2288 59.2454C70.1836 59.0842 70.1084 59.0018 69.9428 58.9456C69.4086 58.7658 68.9872 58.4285 68.7087 57.9414C68.1782 57.0197 68.0842 56.0492 68.4943 55.0563C68.5846 54.8352 68.7426 54.6366 68.9044 54.4568C68.9984 54.3519 69.1565 54.2732 69.2957 54.2507C69.6418 54.1945 69.9428 54.0484 70.225 53.8648C71.4629 53.0592 72.4788 52.025 73.3253 50.8223C73.6941 50.2977 74.0139 49.7469 74.2584 49.1549C74.2697 49.1324 74.281 49.1062 74.2923 49.0837C74.4767 48.7277 74.8078 48.6603 75.1125 48.9263C75.2404 49.035 75.3571 49.1549 75.4812 49.2635C76.6664 50.3164 77.9081 51.2944 79.2701 52.1149C79.4432 52.2199 79.4281 52.2086 79.5636 52.0475C79.857 51.7028 80.158 51.3656 80.4703 51.0396C80.9444 50.5412 81.4298 50.0541 81.9076 49.5633C82.1371 49.3235 82.4005 49.1998 82.7354 49.3085C83.0928 49.4246 83.2997 49.7506 83.2395 50.1178C83.1003 50.9497 82.9498 51.7815 82.8068 52.617C82.7767 52.7894 82.7617 52.9692 82.7278 53.1416C82.694 53.3102 82.6526 53.4751 82.5961 53.6362C82.5623 53.7299 82.5849 53.7673 82.6714 53.7973C83.3298 54.0184 84.0071 54.1645 84.7031 54.2095C84.8649 54.2207 85.0305 54.2132 85.1847 54.2507C85.3164 54.2807 85.4556 54.3369 85.5572 54.4231C85.9523 54.7603 86.1329 55.2137 86.2119 55.7158C86.3285 56.4464 86.2307 57.1433 85.8846 57.799C85.5986 58.3461 85.1622 58.7358 84.5752 58.9381C84.4097 58.9981 84.3269 59.0805 84.2742 59.2604C83.8603 60.7291 83.0665 61.9619 81.9377 62.9886C81.7722 63.1384 81.5803 63.2583 81.3959 63.3857C81.3169 63.4419 81.2906 63.4981 81.3018 63.5956C81.3959 64.27 81.7383 64.8133 82.2236 65.2704C82.4682 65.5027 82.7278 65.7276 83.01 65.9074C83.8829 66.4732 84.7822 67.0015 85.6513 67.5748C86.2006 67.9383 86.7274 68.3429 87.2428 68.7551C87.9615 69.3246 88.5221 70.0328 88.9548 70.8384C89.4138 71.6964 89.6697 72.6144 89.7299 73.5886C89.7411 73.761 89.7675 73.9333 89.7487 74.102C89.7336 74.2406 89.696 74.3905 89.617 74.5029C89.5267 74.6378 89.3724 74.7202 89.1956 74.6715C88.9962 74.619 88.8381 74.5029 88.808 74.2893C88.7742 74.0532 88.7591 73.8134 88.7441 73.5774C88.6575 72.0411 88.0104 70.7747 86.8929 69.733C86.5392 69.407 86.1592 69.111 85.7679 68.7813C85.6701 68.9499 85.5949 69.0773 85.5234 69.2085C85.0192 70.1752 84.3645 71.022 83.4954 71.6889C82.5999 72.3784 81.5916 72.7643 80.444 72.6481C79.8345 72.5882 79.2814 72.3671 78.7885 71.9774C78.1978 71.5128 77.735 70.9433 77.3211 70.3288C77.3023 70.2988 77.2797 70.2688 77.2571 70.2389C77.2496 70.2276 77.2308 70.2239 77.2082 70.2089C77.1857 70.2351 77.1593 70.2576 77.1405 70.2876C76.8433 70.7822 76.4896 71.2281 76.072 71.6215C74.9394 72.6931 73.6339 72.9292 72.189 72.3821C71.1544 71.9924 70.3454 71.2918 69.7096 70.4037C69.3672 69.9279 69.085 69.4108 68.7727 68.9162C68.7614 68.8937 68.7464 68.875 68.7238 68.8375L68.7351 68.8413ZM74.9244 50.0504C74.6761 50.4663 74.4578 50.8822 74.1945 51.2644C73.521 52.2461 72.7346 53.1341 71.8241 53.9022C71.1619 54.4605 70.4583 54.9626 69.5967 55.1799C69.5252 55.1987 69.4499 55.2774 69.4198 55.3486C69.2355 55.7757 69.2204 56.2216 69.2731 56.6787C69.3634 57.4356 69.7886 57.9564 70.5223 58.1138C70.8421 58.1812 71.0039 58.3424 71.0678 58.6421C71.0791 58.7021 71.1054 58.762 71.1205 58.822C71.4253 60.0659 72.0649 61.1188 72.9641 62.0181C73.3667 62.419 73.8483 62.715 74.3374 62.9923C75.5715 63.6892 76.9148 63.8354 78.2881 63.6368C79.699 63.4307 80.8955 62.7637 81.8662 61.7183C82.6488 60.8753 83.1605 59.8786 83.4277 58.762C83.518 58.3873 83.6835 58.1625 84.0861 58.0913C84.4962 58.0164 84.8273 57.7803 85.023 57.4019C85.339 56.7874 85.3616 56.1429 85.1697 55.4834C85.102 55.2586 84.9628 55.2062 84.7596 55.1949C83.8227 55.1387 82.9197 54.9177 82.0506 54.5692C81.9415 54.5242 81.8512 54.5242 81.7421 54.5654C81.3207 54.7266 80.888 54.7715 80.459 54.6142C79.8796 54.4043 79.5184 53.9847 79.3416 53.4001C79.319 53.329 79.2701 53.2428 79.2099 53.2053C77.9494 52.4747 76.7906 51.5979 75.6543 50.6949C75.4022 50.4963 75.1727 50.2677 74.9357 50.0541L74.9244 50.0504ZM82.472 66.7018C81.4862 66.0011 80.681 65.1917 80.3951 63.989C78.2881 64.9257 76.2074 64.922 74.1192 63.9815C73.837 65.2105 73.0055 66.0236 72.0047 66.7355C72.7647 67.3987 73.6 67.9045 74.5331 68.238C76.1209 68.8075 77.735 68.8525 79.3566 68.4216C80.5268 68.1106 81.5539 67.5223 82.4682 66.7055L82.472 66.7018ZM78.0397 69.6618C78.2918 70.1302 79.0669 70.9883 79.4657 71.2655C79.8909 71.5615 80.365 71.6927 80.8804 71.6889C81.6329 71.6814 82.2951 71.4154 82.8859 70.962C83.7061 70.3325 84.3043 69.5195 84.7709 68.609C84.9439 68.2717 84.9439 68.2755 84.6279 68.0806C84.2178 67.8333 83.8114 67.5785 83.4051 67.3275C83.3223 67.275 83.2659 67.2788 83.1906 67.35C82.5999 67.8895 81.949 68.3467 81.2379 68.7139C80.3273 69.1822 79.3641 69.4782 78.3445 69.6056C78.2429 69.6169 78.1451 69.6431 78.0397 69.6656V69.6618ZM76.4482 69.6543C76.3316 69.6356 76.2488 69.6206 76.1623 69.6056C75.7258 69.527 75.2818 69.482 74.8604 69.3621C73.5548 68.9911 72.3809 68.3691 71.3763 67.4511C71.1957 67.2863 71.1845 67.2863 70.9738 67.4137C70.59 67.646 70.2062 67.8746 69.8224 68.1069C69.7246 68.1668 69.6343 68.2305 69.544 68.2905C69.8826 69.0286 70.304 69.6918 70.8383 70.2688C71.4817 70.9583 72.2079 71.5278 73.1936 71.659C73.8747 71.7489 74.4992 71.6402 75.0561 71.2243C75.6167 70.8084 76.023 70.2614 76.4444 69.6581L76.4482 69.6543ZM82.1522 50.7548C82.0807 50.8035 82.0506 50.8223 82.0242 50.8447C81.4975 51.3843 80.9745 51.9276 80.4515 52.4709C80.4365 52.4859 80.4252 52.5046 80.4139 52.5196C80.2671 52.692 80.2333 52.8906 80.2709 53.1041C80.3838 53.7074 81.0159 53.9322 81.49 53.535C81.5013 53.5238 81.5125 53.5088 81.5276 53.5088C81.6781 53.4901 81.6931 53.3739 81.7157 53.2615C81.8098 52.7407 81.9001 52.2199 81.9941 51.699C82.0468 51.3993 82.0957 51.0995 82.1559 50.7548H82.1522Z" fill="black"/>
<path d="M78.2886 44.7521C77.6227 44.7408 76.968 44.8083 76.3434 45.0668C76.0725 45.1792 75.8204 45.3254 75.6398 45.5689C75.4818 45.7825 75.2673 45.7713 75.0341 45.7113C74.6917 45.6214 74.3493 45.5015 74.0031 45.4827C73.0211 45.4265 72.2009 45.8275 71.486 46.4719C70.4175 47.4311 69.7177 48.6377 69.1533 49.9341C68.5588 51.3092 68.175 52.7443 67.938 54.2168C67.8214 54.9363 67.7837 55.6707 67.7423 56.4013C67.6897 57.2818 67.6897 58.1661 67.6332 59.0466C67.5881 59.7286 67.5128 60.4105 67.4075 61.0887C67.2908 61.8456 67.1291 62.595 66.9823 63.3481C66.956 63.483 66.9071 63.6179 66.8657 63.7528C66.8393 63.8465 66.8657 63.8914 66.971 63.9102C68.1637 64.1312 69.3677 64.2174 70.5793 64.2212C70.6771 64.2212 70.7787 64.2361 70.8727 64.2586C71.0759 64.3073 71.2377 64.5247 71.2339 64.7158C71.2302 64.9181 71.0684 65.1317 70.8652 65.1654C70.662 65.1991 70.4513 65.2066 70.2444 65.1991C69.7139 65.1804 69.1834 65.1541 68.6529 65.1092C67.8326 65.038 67.0199 64.9218 66.2223 64.7045C65.8197 64.5959 65.6842 64.3785 65.8122 63.9814C66.1169 63.0146 66.3013 62.018 66.4443 61.0175C66.5534 60.2681 66.6249 59.5113 66.6738 58.7581C66.7227 57.975 66.7189 57.1919 66.749 56.4088C66.7904 55.4421 66.9033 54.4866 67.0726 53.5349C67.3397 52.0324 67.7988 50.5861 68.4346 49.1997C69.0216 47.9182 69.744 46.7192 70.8238 45.7713C71.7118 44.9919 72.7239 44.4936 73.9279 44.4936C74.2402 44.4936 74.5562 44.576 74.8648 44.6397C75.0378 44.6771 75.1771 44.6659 75.3276 44.5535C75.8505 44.1601 76.4601 43.9577 77.0997 43.8678C78.7477 43.643 80.358 43.8303 81.8969 44.4561C83.353 45.0481 84.5118 46.0223 85.4111 47.3112C86.3517 48.6601 86.9123 50.1664 87.2585 51.7514C87.4391 52.5757 87.5557 53.415 87.661 54.2543C87.7325 54.8164 87.7438 55.3821 87.7664 55.9479C87.7965 56.8809 87.7739 57.8214 87.8454 58.7506C87.9207 59.7623 88.0411 60.774 88.2028 61.7782C88.3232 62.5275 88.5415 63.2619 88.7183 64.0038C88.8086 64.3898 88.692 64.6183 88.3044 64.7008C87.6987 64.8319 87.0929 64.9668 86.4796 65.0342C85.6293 65.1242 84.7752 65.1541 83.9249 65.2029C83.827 65.2103 83.7255 65.1916 83.6314 65.1654C83.4282 65.1092 83.274 64.8956 83.2815 64.697C83.289 64.5059 83.447 64.3073 83.6465 64.2586C83.733 64.2361 83.8195 64.2249 83.9098 64.2212C84.6059 64.1874 85.3057 64.1762 86.0018 64.12C86.5248 64.0788 87.044 63.9776 87.5632 63.9064C87.6761 63.8914 87.661 63.8277 87.6422 63.749C87.5143 63.187 87.36 62.6325 87.266 62.0667C87.1305 61.2573 87.0327 60.4442 86.9349 59.6312C86.7844 58.3722 86.7881 57.102 86.7656 55.8355C86.7317 53.9396 86.4759 52.0699 85.8362 50.2713C85.381 48.9899 84.7489 47.8133 83.7706 46.8429C82.7435 45.8237 81.5131 45.2167 80.1022 44.9357C79.5002 44.8158 78.8982 44.7446 78.2886 44.7483V44.7521Z" fill="black"/>
</svg>
